<svg width="12" height="15" viewBox="0 0 12 15" fill="none" xmlns="http://www.w3.org/2000/svg">
<path d="M11.7101 4.88001L7.41006 0.590008C7.03534 0.217506 6.52843 0.00842285 6.00006 0.00842285C5.47169 0.00842285 4.96479 0.217506 4.59006 0.590008L0.29006 4.88001C0.103809 5.06737 -0.000732422 5.32082 -0.000732422 5.58501C-0.000732422 5.84919 0.103809 6.10265 0.29006 6.29001C0.383023 6.38374 0.493624 6.45813 0.615483 6.5089C0.737343 6.55967 0.868048 6.58581 1.00006 6.58581C1.13207 6.58581 1.26278 6.55967 1.38464 6.5089C1.5065 6.45813 1.6171 6.38374 1.71006 6.29001L5.00006 3.00001V14C5.00006 14.2652 5.10542 14.5196 5.29295 14.7071C5.48049 14.8947 5.73484 15 6.00006 15C6.26528 15 6.51963 14.8947 6.70717 14.7071C6.8947 14.5196 7.00006 14.2652 7.00006 14V3.00001L10.2901 6.29001C10.477 6.47831 10.7312 6.58463 10.9965 6.58556C11.2619 6.5865 11.5168 6.48199 11.7051 6.29501C11.8934 6.10803 11.9997 5.85391 12.0006 5.58854C12.0016 5.32318 11.897 5.06831 11.7101 4.88001Z" fill="#3E8415"/>
</svg>
