<svg width="12" height="14" viewBox="0 0 12 14" fill="none" xmlns="http://www.w3.org/2000/svg">
<path d="M11.7098 7.71C11.6169 7.61627 11.5063 7.54188 11.3844 7.49111C11.2625 7.44034 11.1318 7.4142 10.9998 7.4142C10.8678 7.4142 10.7371 7.44034 10.6152 7.49111C10.4934 7.54188 10.3828 7.61627 10.2898 7.71L6.99982 11V1C6.99982 0.734784 6.89446 0.48043 6.70692 0.292893C6.51939 0.105357 6.26503 0 5.99982 0C5.7346 0 5.48025 0.105357 5.29271 0.292893C5.10517 0.48043 4.99982 0.734784 4.99982 1V11L1.70982 7.71C1.61685 7.61627 1.50625 7.54188 1.38439 7.49111C1.26253 7.44034 1.13183 7.4142 0.999816 7.4142C0.867804 7.4142 0.737098 7.44034 0.615239 7.49111C0.49338 7.54188 0.382779 7.61627 0.289816 7.71C0.103565 7.89736 -0.000976562 8.15082 -0.000976562 8.415C-0.000976562 8.67919 0.103565 8.93264 0.289816 9.12L4.58982 13.41C4.96317 13.7856 5.47024 13.9978 5.99982 14C6.52592 13.9951 7.02892 13.7832 7.39982 13.41L11.6998 9.12C11.8874 8.93396 11.9937 8.68125 11.9956 8.41706C11.9975 8.15288 11.8947 7.89868 11.7098 7.71Z" fill="white"/>
</svg>
