<svg width="11" height="15" viewBox="0 0 11 15" fill="none" xmlns="http://www.w3.org/2000/svg">
<path d="M10.664 9.23006C10.5916 9.15717 10.5056 9.0993 10.4108 9.05982C10.3161 9.02033 10.2144 9 10.1117 9C10.0091 9 9.90739 9.02033 9.81261 9.05982C9.71783 9.0993 9.63181 9.15717 9.55951 9.23006L5.99728 12.7923C5.92498 12.8652 5.83896 12.923 5.74418 12.9625C5.6494 13.002 5.54774 13.0223 5.44506 13.0223C5.34239 13.0223 5.24073 13.002 5.14595 12.9625C5.05117 12.923 4.96514 12.8652 4.89284 12.7923L1.33062 9.23006C1.25831 9.15717 1.17229 9.0993 1.07751 9.05982C0.98273 9.02033 0.88107 9 0.778394 9C0.675718 9 0.574058 9.02033 0.479279 9.05982C0.384499 9.0993 0.298476 9.15717 0.226172 9.23006C0.0813101 9.37579 0 9.57292 0 9.7784C0 9.98387 0.0813101 10.181 0.226172 10.3267L3.79617 13.8967C4.23367 14.3337 4.82673 14.5791 5.44506 14.5791C6.0634 14.5791 6.65645 14.3337 7.09395 13.8967L10.664 10.3267C10.8088 10.181 10.8901 9.98387 10.8901 9.7784C10.8901 9.57292 10.8088 9.37579 10.664 9.23006V9.23006Z" fill="#374957"/>
<path d="M0.226187 5.34904C0.298491 5.42194 0.384514 5.4798 0.479293 5.51929C0.574072 5.55877 0.675732 5.5791 0.778408 5.5791C0.881084 5.5791 0.982744 5.55877 1.07752 5.51929C1.1723 5.4798 1.25833 5.42194 1.33063 5.34904L4.89285 1.78682C4.96516 1.71392 5.05118 1.65606 5.14596 1.61657C5.24074 1.57709 5.3424 1.55676 5.44508 1.55676C5.54775 1.55676 5.64941 1.57709 5.74419 1.61657C5.83897 1.65606 5.92499 1.71392 5.9973 1.78682L9.55952 5.34904C9.63182 5.42194 9.71785 5.4798 9.81263 5.51929C9.90741 5.55877 10.0091 5.5791 10.1117 5.5791C10.2144 5.5791 10.3161 5.55877 10.4109 5.51929C10.5056 5.4798 10.5917 5.42194 10.664 5.34904C10.8088 5.20331 10.8901 5.00618 10.8901 4.8007C10.8901 4.59523 10.8088 4.3981 10.664 4.25237L7.09396 0.68238C6.65646 0.245424 6.06341 -9.95765e-06 5.44507 -9.90359e-06C4.82674 -9.84953e-06 4.23369 0.245424 3.79619 0.68238L0.226187 4.25237C0.0813247 4.3981 1.31991e-05 4.59523 1.3217e-05 4.80071C1.3235e-05 5.00618 0.0813248 5.20331 0.226187 5.34904V5.34904Z" fill="#374957"/>
</svg>
