<svg width="12" height="15" viewBox="0 0 12 15" fill="none" xmlns="http://www.w3.org/2000/svg">
<path d="M0.289819 10.12L4.58982 14.41C4.96454 14.7825 5.47145 14.9916 5.99982 14.9916C6.52819 14.9916 7.03509 14.7825 7.40982 14.41L11.7098 10.12C11.8961 9.93263 12.0006 9.67918 12.0006 9.41499C12.0006 9.15081 11.8961 8.89735 11.7098 8.70999C11.6169 8.61626 11.5063 8.54187 11.3844 8.4911C11.2625 8.44033 11.1318 8.41419 10.9998 8.41419C10.8678 8.41419 10.7371 8.44033 10.6152 8.4911C10.4934 8.54187 10.3828 8.61626 10.2898 8.70999L6.99982 12L6.99982 0.999992C6.99982 0.734776 6.89446 0.480421 6.70692 0.292885C6.51939 0.105349 6.26503 -7.62939e-06 5.99982 -7.62939e-06C5.7346 -7.62939e-06 5.48025 0.105349 5.29271 0.292885C5.10518 0.480421 4.99982 0.734776 4.99982 0.999992L4.99982 12L1.70982 8.70999C1.52284 8.52169 1.26872 8.41537 1.00335 8.41444C0.73799 8.4135 0.483122 8.51801 0.294818 8.70499C0.106514 8.89197 0.000198364 9.14609 -0.000739098 9.41146C-0.00167656 9.67682 0.102841 9.93169 0.289819 10.12Z" fill="#D31D1D"/>
</svg>
