<svg width="24" height="22" viewBox="0 0 24 22" fill="none" xmlns="http://www.w3.org/2000/svg">
<path d="M19 -0.000162125H5C3.67441 0.00142573 2.40356 0.52872 1.46622 1.46606C0.528882 2.4034 0.00158786 3.67424 0 4.99984L0 16.9998C0.00158786 18.3254 0.528882 19.5963 1.46622 20.5336C2.40356 21.471 3.67441 21.9983 5 21.9998H19C20.3256 21.9983 21.5964 21.471 22.5338 20.5336C23.4711 19.5963 23.9984 18.3254 24 16.9998V4.99984C23.9984 3.67424 23.4711 2.4034 22.5338 1.46606C21.5964 0.52872 20.3256 0.00142573 19 -0.000162125ZM5 1.99984H19C19.5988 2.00102 20.1835 2.18135 20.679 2.51764C21.1744 2.85393 21.5579 3.33078 21.78 3.88684L14.122 11.5458C13.5584 12.1072 12.7954 12.4223 12 12.4223C11.2046 12.4223 10.4416 12.1072 9.878 11.5458L2.22 3.88684C2.44215 3.33078 2.82561 2.85393 3.32105 2.51764C3.81648 2.18135 4.40121 2.00102 5 1.99984ZM19 19.9998H5C4.20435 19.9998 3.44129 19.6838 2.87868 19.1212C2.31607 18.5585 2 17.7955 2 16.9998V6.49984L8.464 12.9598C9.40263 13.8961 10.6743 14.4219 12 14.4219C13.3257 14.4219 14.5974 13.8961 15.536 12.9598L22 6.49984V16.9998C22 17.7955 21.6839 18.5585 21.1213 19.1212C20.5587 19.6838 19.7956 19.9998 19 19.9998Z" fill="#374957"/>
</svg>
