<svg xmlns="http://www.w3.org/2000/svg" width="184.473" height="119.388" viewBox="0 0 184.473 119.388">
  <g id="eye-icon" transform="translate(-8.05 -16.4)">
    <g id="Icon-Eye" transform="translate(8.05 16.4)">
      <path id="Fill-174" d="M-177.713-348.212c-62.39,0-90.5-55.072-91.659-57.383a4.91,4.91,0,0,1,0-4.621c1.155-2.311,29.269-57.383,91.659-57.383s90.5,55.072,91.659,57.383a4.911,4.911,0,0,1,0,4.621c-1.155,2.7-29.269,57.383-91.659,57.383Zm-81.261-59.309c5.777,10.013,32.35,49.3,81.261,49.3s75.484-39.282,81.261-49.3c-5.777-10.013-32.35-49.3-81.261-49.3s-75.484,39.282-81.261,49.3Z" transform="translate(269.95 467.6)" fill="#134563"/>
      <path id="Fill-175" d="M-210.075-367.549A48.569,48.569,0,0,1-258.6-416.075,48.818,48.818,0,0,1-210.075-464.6a48.818,48.818,0,0,1,48.525,48.525,48.569,48.569,0,0,1-48.525,48.525Zm0-87.038a38.625,38.625,0,0,0-38.512,38.512,38.625,38.625,0,0,0,38.512,38.512,38.625,38.625,0,0,0,38.512-38.512,38.625,38.625,0,0,0-38.512-38.512Z" transform="translate(302.311 476.154)" fill="#134563"/>
      <path id="Fill-176" d="M-226.041-405.368A27.037,27.037,0,0,1-253-432.327a5.1,5.1,0,0,1,5.007-5.007,5.1,5.1,0,0,1,5.007,5.007,16.438,16.438,0,0,0,16.56,16.56,16.438,16.438,0,0,0,16.56-16.56,16.438,16.438,0,0,0-16.56-16.56,5.1,5.1,0,0,1-5.007-5.007,5.1,5.1,0,0,1,5.007-5.006,27.037,27.037,0,0,1,26.959,26.958,26.382,26.382,0,0,1-26.573,26.573" transform="translate(318.278 492.406)" fill="#134563"/>
    </g>
  </g>
</svg>
