<svg id="icon-10-white" xmlns="http://www.w3.org/2000/svg" xmlns:xlink="http://www.w3.org/1999/xlink" width="24" height="24" viewBox="0 0 24 24">
  <defs>
    <clipPath id="clip-path">
      <rect id="Rectangle_1756" data-name="Rectangle 1756" width="24" height="24" fill="#fff"/>
    </clipPath>
  </defs>
  <g id="Group_1357" data-name="Group 1357" clip-path="url(#clip-path)">
    <path id="Path_25668" data-name="Path 25668" d="M21.294,13.9l-.444-.256a9.1,9.1,0,0,0,0-3.29l.444-.256a3,3,0,0,0-3-5.2l-.445.257A8.976,8.976,0,0,0,15,3.513V3A3,3,0,1,0,9,3v.513A8.977,8.977,0,0,0,6.152,5.159L5.705,4.9a3,3,0,0,0-3,5.2l.444.256a9.1,9.1,0,0,0,0,3.29l-.444.256a3,3,0,0,0,3,5.2l.445-.257A8.976,8.976,0,0,0,9,20.487V21a3,3,0,1,0,6,0v-.513a8.976,8.976,0,0,0,2.848-1.646l.447.258a3,3,0,1,0,3-5.2Zm-2.548-3.776a7.047,7.047,0,0,1,0,3.75,1,1,0,0,0,.464,1.133l1.084.626a1,1,0,1,1-1,1.733l-1.086-.628a1,1,0,0,0-1.215.165,6.983,6.983,0,0,1-3.243,1.875,1,1,0,0,0-.751.969V21a1,1,0,0,1-2,0V19.748a1,1,0,0,0-.751-.969A6.984,6.984,0,0,1,7.006,16.9a1,1,0,0,0-1.215-.165l-1.084.627a1,1,0,1,1-1-1.732L4.791,15a1,1,0,0,0,.464-1.133,7.048,7.048,0,0,1,0-3.75A1,1,0,0,0,4.79,8.992L3.706,8.366a1,1,0,0,1,1-1.733l1.086.628A1,1,0,0,0,7.006,7.1a6.984,6.984,0,0,1,3.243-1.875A1,1,0,0,0,11,4.252V3a1,1,0,0,1,2,0V4.252a1,1,0,0,0,.751.969A6.983,6.983,0,0,1,16.994,7.1a1,1,0,0,0,1.215.165l1.084-.627a1,1,0,1,1,1,1.732L19.209,9a1,1,0,0,0-.463,1.129Z" fill="#fff"/>
  </g>
  <path id="Path_25669" data-name="Path 25669" d="M11.628,16.1c-.424-.213-.819-.384-1.187-.6a.86.86,0,0,1-.314-1.2.8.8,0,0,1,1.173-.255,1.745,1.745,0,0,0,1.334.269.888.888,0,0,0,.7-.979A.634.634,0,0,0,12.9,12.8c-.47-.2-.948-.4-1.407-.623a2.12,2.12,0,0,1-1.232-1.405,2.348,2.348,0,0,1,1.136-2.628.372.372,0,0,0,.255-.365.813.813,0,0,1,1.624-.014.3.3,0,0,0,.228.295,3.246,3.246,0,0,1,.6.325.877.877,0,0,1,.247,1.2.8.8,0,0,1-1.138.238,1.116,1.116,0,0,0-.988-.177.537.537,0,0,0-.376.474.384.384,0,0,0,.266.443c.389.182.776.376,1.179.53a2.434,2.434,0,0,1,1.622,1.68A2.674,2.674,0,0,1,13.5,15.833c-.132.064-.217.115-.223.3a.816.816,0,0,1-.8.867.836.836,0,0,1-.846-.858C11.628,16.116,11.625,16.088,11.628,16.1Z" fill="#fff"/>
</svg>
