<svg width="24" height="24" viewBox="0 0 24 24" fill="none" xmlns="http://www.w3.org/2000/svg">
<g clip-path="url(#clip0_3_580)">
<path d="M19 0H5C3.67441 0.00158786 2.40356 0.528882 1.46622 1.46622C0.528882 2.40356 0.00158786 3.67441 0 5L0 19C0.00158786 20.3256 0.528882 21.5964 1.46622 22.5338C2.40356 23.4711 3.67441 23.9984 5 24H19C20.3256 23.9984 21.5964 23.4711 22.5338 22.5338C23.4711 21.5964 23.9984 20.3256 24 19V5C23.9984 3.67441 23.4711 2.40356 22.5338 1.46622C21.5964 0.528882 20.3256 0.00158786 19 0V0ZM22 19C22 19.7956 21.6839 20.5587 21.1213 21.1213C20.5587 21.6839 19.7956 22 19 22H5C4.20435 22 3.44129 21.6839 2.87868 21.1213C2.31607 20.5587 2 19.7956 2 19V5C2 4.20435 2.31607 3.44129 2.87868 2.87868C3.44129 2.31607 4.20435 2 5 2H19C19.7956 2 20.5587 2.31607 21.1213 2.87868C21.6839 3.44129 22 4.20435 22 5V19Z" fill="#374957"/>
</g>
<g clip-path="url(#clip1_3_580)">
<path d="M15.1675 16.7194C15.1675 14.9303 13.9066 14.4173 12.5425 14.1285L11.8195 13.9821C10.7504 13.7719 10.6679 13.4618 10.6679 13.0466C10.6679 12.5079 11.1534 12.186 11.9665 12.186C12.9295 12.186 13.1763 12.6698 13.2787 13.0331L13.2884 13.0633C13.4095 13.3802 13.691 13.5692 14.0422 13.5692C14.1331 13.5692 14.2149 13.5553 14.276 13.5429C14.6529 13.4679 14.9154 13.1679 14.9154 12.8126C14.9154 12.7245 14.8994 12.6371 14.8674 12.5522C14.6742 11.9312 14.1316 10.9538 12.628 10.7306V9.66563C12.628 8.77857 11.2387 8.77857 11.2387 9.66563V10.737C9.62355 10.9898 9.0288 12.0885 9.0288 13.0463C9.0288 14.7889 10.2423 15.2747 11.4277 15.5192L12.2097 15.6853C13.3235 15.9118 13.5198 16.2023 13.5198 16.7284C13.5198 17.3713 12.9762 17.7546 12.065 17.7546C10.882 17.7546 10.6409 17.2219 10.4797 16.6239C10.3854 16.293 10.0863 16.0798 9.71748 16.0798C9.63705 16.0798 9.57255 16.0905 9.49473 16.1038L9.4713 16.1083C9.08992 16.1989 8.83398 16.4993 8.83398 16.8553C8.83398 16.923 8.84598 16.9806 8.85573 17.0271L8.86773 17.0803C9.0393 17.6603 9.41805 18.9268 11.3071 19.2094V20.3241C11.3071 20.7679 11.6562 21.0002 12.0016 21.0002C12.347 21.0002 12.6965 20.7679 12.6965 20.3241V19.2289C14.1965 19.0335 15.169 18.0752 15.169 16.7196" fill="#374957"/>
</g>
<line x1="1" y1="6" x2="23" y2="6" stroke="#374957" stroke-width="2"/>
<defs>
<clipPath id="clip0_3_580">
<rect width="24" height="24" fill="white"/>
</clipPath>
<clipPath id="clip1_3_580">
<rect width="12" height="12" fill="white" transform="translate(6 9)"/>
</clipPath>
</defs>
</svg>
