<svg width="24" height="24" viewBox="0 0 24 24" fill="none" xmlns="http://www.w3.org/2000/svg">
<g clip-path="url(#clip0_3_571)">
<path d="M21 6H18C18 4.4087 17.3679 2.88258 16.2426 1.75736C15.1174 0.632141 13.5913 0 12 0C10.4087 0 8.88258 0.632141 7.75736 1.75736C6.63214 2.88258 6 4.4087 6 6H3C2.20435 6 1.44129 6.31607 0.87868 6.87868C0.31607 7.44129 0 8.20435 0 9L0 19C0.00158786 20.3256 0.528882 21.5964 1.46622 22.5338C2.40356 23.4711 3.67441 23.9984 5 24H19C20.3256 23.9984 21.5964 23.4711 22.5338 22.5338C23.4711 21.5964 23.9984 20.3256 24 19V9C24 8.20435 23.6839 7.44129 23.1213 6.87868C22.5587 6.31607 21.7956 6 21 6ZM12 2C13.0609 2 14.0783 2.42143 14.8284 3.17157C15.5786 3.92172 16 4.93913 16 6H8C8 4.93913 8.42143 3.92172 9.17157 3.17157C9.92172 2.42143 10.9391 2 12 2ZM22 19C22 19.7956 21.6839 20.5587 21.1213 21.1213C20.5587 21.6839 19.7956 22 19 22H5C4.20435 22 3.44129 21.6839 2.87868 21.1213C2.31607 20.5587 2 19.7956 2 19V9C2 8.73478 2.10536 8.48043 2.29289 8.29289C2.48043 8.10536 2.73478 8 3 8H6V10C6 10.2652 6.10536 10.5196 6.29289 10.7071C6.48043 10.8946 6.73478 11 7 11C7.26522 11 7.51957 10.8946 7.70711 10.7071C7.89464 10.5196 8 10.2652 8 10V8H16V10C16 10.2652 16.1054 10.5196 16.2929 10.7071C16.4804 10.8946 16.7348 11 17 11C17.2652 11 17.5196 10.8946 17.7071 10.7071C17.8946 10.5196 18 10.2652 18 10V8H21C21.2652 8 21.5196 8.10536 21.7071 8.29289C21.8946 8.48043 22 8.73478 22 9V19Z" fill="#374957"/>
</g>
<path d="M16.3004 17.2245C16.3004 17.6507 16.3004 18.0702 16.3004 18.4965C16.3004 18.8009 16.1403 18.9768 15.8802 18.9836C15.6068 18.9904 15.4333 18.8077 15.4333 18.4897C15.4333 17.3869 15.4333 16.284 15.4333 15.1812C15.4333 14.9308 15.5334 14.7617 15.7735 14.7008C16.0203 14.6399 16.187 14.7617 16.2871 14.9782C16.5205 15.4586 16.7406 15.9389 17.0274 16.4126C17.0274 16.1149 17.0274 15.8172 17.0274 15.5195C17.0274 15.4044 17.0207 15.2826 17.0274 15.1676C17.0474 14.8835 17.2408 14.6805 17.4809 14.6872C17.721 14.694 17.9145 14.897 17.9211 15.1879C17.9278 15.7292 17.9211 16.2705 17.9211 16.8117C17.9211 17.3463 17.9145 17.874 17.9211 18.4085C17.9211 18.6791 17.8611 18.916 17.5743 18.9836C17.2742 19.058 17.1141 18.8686 17.0007 18.6115C16.7873 18.1446 16.5672 17.6846 16.3471 17.2177C16.3338 17.2109 16.3204 17.2177 16.3004 17.2245Z" fill="#374957"/>
<path d="M5.88965 16.7374C5.88965 16.2773 5.88965 15.8105 5.88965 15.3504C5.88965 14.9174 6.04305 14.6873 6.33651 14.6806C6.62997 14.6738 6.79671 14.9106 6.79671 15.3369C6.79671 16.1826 6.80338 17.0283 6.79004 17.8741C6.79004 18.05 6.83006 18.1244 7.01014 18.1041C7.15687 18.0906 7.3036 18.0906 7.44366 18.1041C7.68376 18.1244 7.86384 18.3274 7.84383 18.5574C7.82383 18.801 7.6971 18.9702 7.44366 18.9837C7.10351 18.9972 6.76336 19.004 6.42988 18.9837C6.10307 18.9634 5.89632 18.6995 5.88965 18.3071C5.88965 17.7794 5.88965 17.2584 5.88965 16.7374Z" fill="#374957"/>
<path d="M14.5542 15.7297C14.5475 15.2155 14.2474 14.8231 13.7471 14.7216C13.3937 14.6472 13.0335 14.6472 12.68 14.7351C12.2732 14.8366 11.9464 15.202 11.9397 15.6147C11.9264 16.5958 11.9264 17.5836 11.9397 18.5646C11.9397 18.815 12.1331 18.9841 12.3732 18.9841C12.6133 18.9841 12.7934 18.8217 12.8067 18.5714C12.8201 18.382 12.8134 18.1993 12.8134 18.0098C12.8134 17.34 12.8134 17.3468 13.4737 17.3671C13.6204 17.3738 13.6805 17.4077 13.6738 17.5633C13.6604 17.8677 13.6671 18.1722 13.6738 18.4767C13.6805 18.8014 13.8405 18.9841 14.114 18.9774C14.3874 18.9774 14.5475 18.7879 14.5542 18.4699C14.5608 18.0098 14.5542 17.543 14.5542 17.0829C14.5542 16.6363 14.5542 16.183 14.5542 15.7297ZM13.2269 16.4537C12.8134 16.4537 12.8134 16.4537 12.8134 16.0139C12.8134 15.5944 12.8134 15.5944 13.2536 15.5944C13.6671 15.5944 13.6338 15.5944 13.6805 16.1289C13.7205 16.5687 13.4403 16.4401 13.2269 16.4537Z" fill="#374957"/>
<path d="M11.0713 16.8253C11.0647 16.8253 11.0647 16.8253 11.0713 16.8253C11.0647 16.4938 11.0914 16.1555 11.058 15.8239C10.9913 15.1812 10.4244 14.6873 9.78412 14.6805C9.14384 14.6737 8.56358 15.1676 8.49689 15.8104C8.42352 16.487 8.43019 17.1703 8.49689 17.8402C8.56358 18.5168 9.11716 18.9836 9.79079 18.9836C10.4577 18.9836 11.0047 18.5032 11.0713 17.8266C11.0914 17.4951 11.0713 17.1568 11.0713 16.8253ZM10.1843 17.6846C10.1776 17.9417 10.0109 18.0702 9.77745 18.0905C9.56402 18.1108 9.3706 17.9214 9.36394 17.6913C9.3506 17.4072 9.36394 17.123 9.36394 16.8388C9.36394 16.5614 9.35727 16.2908 9.36394 16.0134C9.3706 15.7495 9.53734 15.5871 9.78412 15.6007C10.0376 15.6142 10.1843 15.7495 10.1843 16.0066C10.1976 16.5682 10.1976 17.123 10.1843 17.6846Z" fill="#374957"/>
<defs>
<clipPath id="clip0_3_571">
<rect width="24" height="24" fill="white"/>
</clipPath>
</defs>
</svg>
