<svg id="icon-03-white" xmlns="http://www.w3.org/2000/svg" xmlns:xlink="http://www.w3.org/1999/xlink" width="24" height="24" viewBox="0 0 24 24">
  <defs>
    <clipPath id="clip-path">
      <rect id="Rectangle_1755" data-name="Rectangle 1755" width="24" height="24" fill="#fff"/>
    </clipPath>
  </defs>
  <g id="Group_1356" data-name="Group 1356" clip-path="url(#clip-path)">
    <path id="Path_25663" data-name="Path 25663" d="M21,6H18A6,6,0,0,0,6,6H3A3,3,0,0,0,0,9V19a5.006,5.006,0,0,0,5,5H19a5.006,5.006,0,0,0,5-5V9a3,3,0,0,0-3-3ZM12,2a4,4,0,0,1,4,4H8a4,4,0,0,1,4-4ZM22,19a3,3,0,0,1-3,3H5a3,3,0,0,1-3-3V9A1,1,0,0,1,3,8H6v2a1,1,0,0,0,2,0V8h8v2a1,1,0,0,0,2,0V8h3a1,1,0,0,1,1,1Z" fill="#fff"/>
  </g>
  <path id="Path_25664" data-name="Path 25664" d="M16.3,17.225V18.5c0,.3-.16.48-.42.487s-.447-.176-.447-.494V15.181a.435.435,0,0,1,.34-.48.421.421,0,0,1,.514.277c.233.48.454.961.74,1.434v-.893c0-.115-.007-.237,0-.352a.449.449,0,1,1,.894.02c.007.541,0,1.083,0,1.624s-.007,1.062,0,1.6c0,.271-.06.507-.347.575s-.46-.115-.574-.372c-.213-.467-.434-.927-.654-1.394C16.334,17.211,16.32,17.218,16.3,17.225Z" fill="#fff"/>
  <path id="Path_25665" data-name="Path 25665" d="M5.89,16.737V15.35c0-.433.153-.663.447-.67s.46.23.46.656c0,.846.007,1.691-.007,2.537,0,.176.04.25.22.23a2.325,2.325,0,0,1,.434,0,.428.428,0,0,1,.4.453.409.409,0,0,1-.4.426c-.34.014-.68.02-1.014,0s-.534-.284-.54-.677Z" fill="#fff"/>
  <path id="Path_25666" data-name="Path 25666" d="M14.554,15.73a.985.985,0,0,0-.807-1.008,2.37,2.37,0,0,0-1.067.014.965.965,0,0,0-.74.88c-.013.981-.013,1.969,0,2.95a.434.434,0,0,0,.867.007c.013-.189.007-.372.007-.562,0-.67,0-.663.66-.643.147.007.207.041.2.2-.013.3-.007.609,0,.913.007.325.167.507.44.5s.433-.189.44-.507c.007-.46,0-.927,0-1.387Zm-1.327.724c-.413,0-.413,0-.413-.44,0-.42,0-.42.44-.42.413,0,.38,0,.427.535C13.72,16.569,13.44,16.44,13.227,16.454Z" fill="#fff"/>
  <path id="Path_25667" data-name="Path 25667" d="M11.071,16.825h0c-.007-.332.02-.67-.013-1A1.29,1.29,0,0,0,8.5,15.81a9.831,9.831,0,0,0,0,2.03,1.3,1.3,0,0,0,2.574-.014C11.091,17.5,11.071,17.157,11.071,16.825Zm-.887.859a.41.41,0,0,1-.82.007c-.013-.284,0-.568,0-.852s-.007-.548,0-.825a.384.384,0,0,1,.42-.413.374.374,0,0,1,.4.406C10.2,16.568,10.2,17.123,10.184,17.685Z" fill="#fff"/>
</svg>
