<svg width="25" height="25" viewBox="0 0 25 25" fill="none" xmlns="http://www.w3.org/2000/svg">
<g clip-path="url(#clip0_3_586)">
<path d="M16.6667 0H8.33333C6.952 0 5.62724 0.548733 4.65049 1.52549C3.67373 2.50224 3.125 3.827 3.125 5.20833V19.7917C3.125 20.4756 3.25972 21.1529 3.52146 21.7848C3.7832 22.4167 4.16685 22.9909 4.65049 23.4745C5.62724 24.4513 6.952 25 8.33333 25H16.6667C17.3506 25 18.0279 24.8653 18.6598 24.6035C19.2917 24.3418 19.8659 23.9582 20.3495 23.4745C20.8332 22.9909 21.2168 22.4167 21.4785 21.7848C21.7403 21.1529 21.875 20.4756 21.875 19.7917V5.20833C21.875 3.827 21.3263 2.50224 20.3495 1.52549C19.3728 0.548733 18.048 0 16.6667 0V0ZM19.7917 19.7917C19.7917 20.6205 19.4624 21.4153 18.8764 22.0014C18.2903 22.5874 17.4955 22.9167 16.6667 22.9167H8.33333C7.50453 22.9167 6.70968 22.5874 6.12362 22.0014C5.53757 21.4153 5.20833 20.6205 5.20833 19.7917V5.20833C5.20833 4.37953 5.53757 3.58468 6.12362 2.99862C6.70968 2.41257 7.50453 2.08333 8.33333 2.08333H16.6667C17.4955 2.08333 18.2903 2.41257 18.8764 2.99862C19.4624 3.58468 19.7917 4.37953 19.7917 5.20833V19.7917Z" fill="#374957"/>
</g>
<path d="M4 8H21" stroke="#374957" stroke-width="2"/>
<line x1="4" y1="17" x2="21" y2="17" stroke="#374957" stroke-width="2"/>
<defs>
<clipPath id="clip0_3_586">
<rect width="25" height="25" fill="white"/>
</clipPath>
</defs>
</svg>
