<svg width="24" height="24" viewBox="0 0 24 24" fill="none" xmlns="http://www.w3.org/2000/svg">
<g clip-path="url(#clip0_3_579)">
<path d="M17.0002 14C17.0002 14.2652 16.8949 14.5195 16.7074 14.7071C16.5198 14.8946 16.2655 15 16.0002 15H8.00024C7.73503 15 7.48067 14.8946 7.29314 14.7071C7.1056 14.5195 7.00024 14.2652 7.00024 14C7.00024 13.7347 7.1056 13.4804 7.29314 13.2929C7.48067 13.1053 7.73503 13 8.00024 13H16.0002C16.2655 13 16.5198 13.1053 16.7074 13.2929C16.8949 13.4804 17.0002 13.7347 17.0002 14ZM13.0002 17H8.00024C7.73503 17 7.48067 17.1053 7.29314 17.2929C7.1056 17.4804 7.00024 17.7347 7.00024 18C7.00024 18.2652 7.1056 18.5195 7.29314 18.7071C7.48067 18.8946 7.73503 19 8.00024 19H13.0002C13.2655 19 13.5198 18.8946 13.7074 18.7071C13.8949 18.5195 14.0002 18.2652 14.0002 18C14.0002 17.7347 13.8949 17.4804 13.7074 17.2929C13.5198 17.1053 13.2655 17 13.0002 17ZM22.0002 10.485V19C21.9987 20.3256 21.4714 21.5964 20.534 22.5337C19.5967 23.4711 18.3258 23.9984 17.0002 24H7.00024C5.67465 23.9984 4.4038 23.4711 3.46646 22.5337C2.52913 21.5964 2.00183 20.3256 2.00024 19V4.99996C2.00183 3.67437 2.52913 2.40352 3.46646 1.46618C4.4038 0.528844 5.67465 0.00154987 7.00024 -3.79865e-05H11.5152C12.4349 -0.00240491 13.3458 0.17755 14.1955 0.529421C15.0451 0.881293 15.8166 1.3981 16.4652 2.04996L19.9492 5.53596C20.6015 6.1842 21.1186 6.95542 21.4707 7.80494C21.8227 8.65445 22.0027 9.56538 22.0002 10.485ZM15.0512 3.46396C14.7365 3.15912 14.3832 2.89689 14.0002 2.68396V6.99996C14.0002 7.26518 14.1056 7.51953 14.2931 7.70707C14.4807 7.8946 14.735 7.99996 15.0002 7.99996H19.3162C19.1032 7.61715 18.8406 7.26411 18.5352 6.94996L15.0512 3.46396ZM20.0002 10.485C20.0002 10.32 19.9682 10.162 19.9532 9.99996H15.0002C14.2046 9.99996 13.4415 9.68389 12.8789 9.12128C12.3163 8.55867 12.0002 7.79561 12.0002 6.99996V2.04696C11.8382 2.03196 11.6792 1.99996 11.5152 1.99996H7.00024C6.20459 1.99996 5.44153 2.31603 4.87892 2.87864C4.31631 3.44125 4.00024 4.20431 4.00024 4.99996V19C4.00024 19.7956 4.31631 20.5587 4.87892 21.1213C5.44153 21.6839 6.20459 22 7.00024 22H17.0002C17.7959 22 18.559 21.6839 19.1216 21.1213C19.6842 20.5587 20.0002 19.7956 20.0002 19V10.485Z" fill="#374957"/>
</g>
<defs>
<clipPath id="clip0_3_579">
<rect width="24" height="24" fill="white"/>
</clipPath>
</defs>
</svg>
