<svg id="icon-11-white" xmlns="http://www.w3.org/2000/svg" xmlns:xlink="http://www.w3.org/1999/xlink" width="25" height="25" viewBox="0 0 25 25">
  <defs>
    <clipPath id="clip-path">
      <rect id="Rectangle_1757" data-name="Rectangle 1757" width="25" height="25" fill="#fff"/>
    </clipPath>
  </defs>
  <g id="Group_1358" data-name="Group 1358" clip-path="url(#clip-path)">
    <path id="Path_25670" data-name="Path 25670" d="M16.667,0H8.333A5.208,5.208,0,0,0,3.125,5.208V19.792A5.208,5.208,0,0,0,8.333,25h8.333a5.208,5.208,0,0,0,5.208-5.208V5.208A5.208,5.208,0,0,0,16.667,0Zm3.125,19.792a3.125,3.125,0,0,1-3.125,3.125H8.333a3.125,3.125,0,0,1-3.125-3.125V5.208A3.125,3.125,0,0,1,8.333,2.083h8.333a3.125,3.125,0,0,1,3.125,3.125Z" fill="#fff"/>
  </g>
  <path id="Path_25671" data-name="Path 25671" d="M4,8H21" fill="none" stroke="#fff" stroke-width="2"/>
  <line id="Line_166" data-name="Line 166" x2="17" transform="translate(4 17)" fill="none" stroke="#fff" stroke-width="2"/>
</svg>
