<svg width="24" height="24" viewBox="0 0 24 24" fill="none" xmlns="http://www.w3.org/2000/svg">
<g clip-path="url(#clip0_203_26)">
<path d="M18.9999 8.42399V6.99999C18.9999 5.14348 18.2624 3.363 16.9497 2.05025C15.6369 0.73749 13.8564 -7.62939e-06 11.9999 -7.62939e-06C10.1434 -7.62939e-06 8.36292 0.73749 7.05016 2.05025C5.73741 3.363 4.99991 5.14348 4.99991 6.99999V8.42399C4.10927 8.8127 3.3512 9.45252 2.81841 10.2652C2.28561 11.0779 2.00119 12.0282 1.99991 13V19C2.0015 20.3256 2.52879 21.5964 3.46613 22.5338C4.40347 23.4711 5.67431 23.9984 6.99991 24H16.9999C18.3255 23.9984 19.5964 23.4711 20.5337 22.5338C21.471 21.5964 21.9983 20.3256 21.9999 19V13C21.9986 12.0282 21.7142 11.0779 21.1814 10.2652C20.6486 9.45252 19.8905 8.8127 18.9999 8.42399ZM6.99991 6.99999C6.99991 5.67391 7.52669 4.40214 8.46437 3.46446C9.40206 2.52678 10.6738 1.99999 11.9999 1.99999C13.326 1.99999 14.5978 2.52678 15.5354 3.46446C16.4731 4.40214 16.9999 5.67391 16.9999 6.99999V7.99999H6.99991V6.99999ZM19.9999 19C19.9999 19.7956 19.6838 20.5587 19.1212 21.1213C18.5586 21.6839 17.7956 22 16.9999 22H6.99991C6.20426 22 5.4412 21.6839 4.87859 21.1213C4.31598 20.5587 3.99991 19.7956 3.99991 19V13C3.99991 12.2043 4.31598 11.4413 4.87859 10.8787C5.4412 10.3161 6.20426 9.99999 6.99991 9.99999H16.9999C17.7956 9.99999 18.5586 10.3161 19.1212 10.8787C19.6838 11.4413 19.9999 12.2043 19.9999 13V19Z" fill="#374957"/>
<path d="M11.9999 13.9997C11.7347 13.9997 11.4804 14.105 11.2928 14.2926C11.1053 14.4801 10.9999 14.7345 10.9999 14.9997V16.9997C10.9999 17.2649 11.1053 17.5192 11.2928 17.7068C11.4804 17.8943 11.7347 17.9997 11.9999 17.9997C12.2651 17.9997 12.5195 17.8943 12.707 17.7068C12.8946 17.5192 12.9999 17.2649 12.9999 16.9997V14.9997C12.9999 14.7345 12.8946 14.4801 12.707 14.2926C12.5195 14.105 12.2651 13.9997 11.9999 13.9997Z" fill="#374957"/>
</g>
<defs>
<clipPath id="clip0_203_26">
<rect width="24" height="24" fill="white"/>
</clipPath>
</defs>
</svg>
