<svg width="354" height="398" viewBox="0 0 354 398" fill="none" xmlns="http://www.w3.org/2000/svg">
<g clip-path="url(#clip0_1_25)">
<path opacity="0.12" d="M354 216.222L12.5019 201.521V14.7005L183.251 7.35025L354 0V216.222Z" fill="#A92D56" fill-opacity="0.51"/>
<path d="M345.579 206.04L18.8336 193.258V22.9695L345.579 10.1823V206.04Z" stroke="#263238" stroke-width="0.5" stroke-miterlimit="10"/>
<path d="M124.965 42.2802L34.5606 44.8852C32.4178 44.9446 30.6787 43.0368 30.6787 40.6156C30.6787 38.1943 32.4124 36.173 34.5606 36.1027L124.965 33.1302C127.297 33.0545 129.186 35.0434 129.186 37.5728C129.186 40.1075 127.291 42.2099 124.965 42.2802Z" fill="#878686"/>
<path d="M70.6665 39.3833C70.6665 36.9188 68.8682 34.9786 66.6607 35.0542L34.5606 36.1027C32.4177 36.173 30.6787 38.1943 30.6787 40.6156C30.6787 43.0368 32.4124 44.95 34.5606 44.8852L66.6607 43.961C68.8682 43.8961 70.6665 41.8478 70.6665 39.3833Z" fill="#A92D56"/>
<path d="M124.965 60.1424L34.5606 62.0448C32.4178 62.088 30.6787 60.164 30.6787 57.7427C30.6787 55.3215 32.4124 53.3164 34.5606 53.2623L124.965 50.9978C127.297 50.9383 129.186 52.9434 129.186 55.4728C129.186 58.0021 127.291 60.0937 124.965 60.1424Z" fill="#878686"/>
<path d="M93.2798 56.2997C93.2798 53.8082 91.4492 51.8355 89.1878 51.895L34.5606 53.2623C32.4178 53.3164 30.6787 55.3215 30.6787 57.7427C30.6787 60.164 32.4124 62.088 34.5606 62.0448L89.1878 60.899C91.4438 60.8504 93.2798 58.7912 93.2798 56.2997Z" fill="#A92D56"/>
<path d="M124.965 78.01L34.5606 79.2044C32.4178 79.2314 30.6787 77.2912 30.6787 74.8699C30.6787 72.4486 32.4124 70.4543 34.5606 70.4219L124.965 68.8654C127.297 68.8276 129.186 70.8435 129.186 73.3728C129.186 75.9022 127.291 77.9775 124.965 78.01Z" fill="#878686"/>
<path d="M109.206 73.6755C109.206 71.1678 107.348 69.1681 105.06 69.2059L34.5606 70.4165C32.4178 70.4544 30.6787 72.4433 30.6787 74.8645C30.6787 77.2858 32.4124 79.226 34.5606 79.199L105.06 78.2694C107.348 78.2424 109.206 76.1832 109.206 73.6755Z" fill="#A92D56"/>
<path d="M124.965 95.8722L34.5606 96.3586C32.4178 96.3694 30.6787 94.4183 30.6787 91.9971C30.6787 89.5758 32.4124 87.5977 34.5606 87.5761L124.965 86.7276C127.297 86.706 129.186 88.7381 129.186 91.2674C129.186 93.8022 127.291 95.8614 124.965 95.8722Z" fill="#A92D56"/>
<path d="M147.675 41.6208L135.287 41.9775C132.939 42.0478 131.044 40.0481 131.044 37.5133C131.044 34.984 132.945 32.8654 135.287 32.7897L147.675 32.3844C150.05 32.3087 151.983 34.3138 151.983 36.8702C151.983 39.4266 150.05 41.556 147.675 41.6208Z" fill="#A92D56"/>
<path d="M147.675 59.6668L135.287 59.9262C132.939 59.9748 131.044 57.9643 131.044 55.4296C131.044 52.9002 132.945 50.7978 135.287 50.7384L147.675 50.4303C150.05 50.3709 151.983 52.3922 151.983 54.9486C151.983 57.5049 150.05 59.6181 147.675 59.6668Z" fill="#A92D56"/>
<path d="M147.675 77.7073L135.287 77.8695C132.939 77.9019 131.044 75.8752 131.044 73.3404C131.044 70.811 132.945 68.7249 135.287 68.6816L147.675 68.4709C150.05 68.4276 151.983 70.4706 151.983 73.0215C151.983 75.5833 150.05 77.6803 147.675 77.7073Z" fill="#A92D56"/>
<path d="M147.675 95.7533L135.287 95.8181C132.939 95.8289 131.044 93.786 131.044 91.2566C131.044 88.7273 132.945 86.6519 135.287 86.6303L147.675 86.5168C150.05 86.4952 151.983 88.5489 151.983 91.1053C151.983 93.6563 150.05 95.7371 147.675 95.7533Z" fill="#A92D56"/>
<path d="M35.2659 31.498L49.8138 30.99" stroke="white" stroke-miterlimit="10"/>
<path d="M35.2659 49.5007L49.8138 49.1116" stroke="white" stroke-miterlimit="10"/>
<path d="M35.2659 66.5792L49.8138 66.3036" stroke="white" stroke-miterlimit="10"/>
<path d="M35.2659 84.5766L49.8138 84.4198" stroke="white" stroke-miterlimit="10"/>
<path d="M304.445 31.9898L316.645 31.6115" stroke="white" stroke-miterlimit="10"/>
<path d="M297.354 42.5342L316.645 42.0208" stroke="white" stroke-miterlimit="10"/>
<path d="M304.445 52.7002L316.645 52.43" stroke="white" stroke-miterlimit="10"/>
<path d="M309.49 62.969L316.645 62.8339" stroke="white" stroke-miterlimit="10"/>
<path d="M304.445 73.4161L316.645 73.2431" stroke="white" stroke-miterlimit="10"/>
<path d="M301.193 83.8037L316.645 83.6524" stroke="white" stroke-miterlimit="10"/>
<path d="M304.445 94.1319L316.645 94.0616" stroke="white" stroke-miterlimit="10"/>
<path d="M298.533 104.498L316.645 104.471" stroke="white" stroke-miterlimit="10"/>
<path d="M304.445 114.842L316.645 114.875" stroke="white" stroke-miterlimit="10"/>
<path d="M319.843 31.5142C321.076 31.4764 322.309 31.4386 323.542 31.4007" stroke="white" stroke-miterlimit="10"/>
<path d="M319.843 41.9343C321.076 41.9019 322.309 41.8694 323.542 41.837" stroke="white" stroke-miterlimit="10"/>
<path d="M319.843 52.3544C321.076 52.3273 322.309 52.3003 323.542 52.2733" stroke="white" stroke-miterlimit="10"/>
<path d="M319.94 62.7744C321.141 62.7528 322.341 62.7312 323.542 62.7096" stroke="white" stroke-miterlimit="10"/>
<path d="M319.843 73.1999C321.076 73.1837 322.309 73.1675 323.542 73.1458" stroke="white" stroke-miterlimit="10"/>
<path d="M319.924 83.62C321.13 83.6092 322.336 83.5983 323.547 83.5821" stroke="white" stroke-miterlimit="10"/>
<path d="M319.843 94.04C321.076 94.0346 322.309 94.0238 323.542 94.0184" stroke="white" stroke-miterlimit="10"/>
<path d="M319.811 104.465C321.055 104.465 322.298 104.46 323.542 104.46" stroke="white" stroke-miterlimit="10"/>
<path d="M319.843 114.886C321.076 114.891 322.309 114.891 323.542 114.896" stroke="white" stroke-miterlimit="10"/>
<path d="M327.16 31.2872C329.271 31.2224 331.381 31.1575 333.497 31.0927" stroke="white" stroke-miterlimit="10"/>
<path d="M327.16 41.7397C329.271 41.6857 331.381 41.6262 333.497 41.5722" stroke="white" stroke-miterlimit="10"/>
<path d="M327.16 52.1922C329.271 52.1436 331.381 52.0949 333.497 52.0517" stroke="white" stroke-miterlimit="10"/>
<path d="M327.322 62.6393C329.373 62.6015 331.435 62.5636 333.492 62.5258" stroke="white" stroke-miterlimit="10"/>
<path d="M327.16 73.0972C329.271 73.0702 331.381 73.0378 333.497 73.0053" stroke="white" stroke-miterlimit="10"/>
<path d="M327.295 83.5443C329.357 83.5227 331.424 83.501 333.497 83.4848" stroke="white" stroke-miterlimit="10"/>
<path d="M327.16 94.0022C329.271 93.9914 331.381 93.9806 333.497 93.9643" stroke="white" stroke-miterlimit="10"/>
<path d="M327.106 104.455C329.233 104.449 331.36 104.449 333.492 104.444" stroke="white" stroke-miterlimit="10"/>
<path d="M327.16 114.907C329.271 114.913 331.381 114.918 333.497 114.923" stroke="white" stroke-miterlimit="10"/>
<path d="M164.727 106.535L288.761 106.454" stroke="#7F7C7C" stroke-miterlimit="10"/>
<path d="M164.727 98.6123L288.761 98.1043" stroke="#7F7C7C" stroke-miterlimit="10"/>
<path d="M164.727 90.6892L288.761 89.7542" stroke="#7F7C7C" stroke-miterlimit="10"/>
<path d="M289.191 122.917V85.2413C289.191 85.2413 286.279 81.5338 274.283 82.2202C262.405 82.9011 259.557 93.4347 247.012 99.5581C234.602 105.622 228.642 95.8019 218.385 95.8559C208.214 95.91 203.159 107.276 195.815 111.583C188.514 115.864 182.021 111.027 173.288 112.081C164.625 113.129 162.746 121.085 162.746 121.085L162.622 122.144L289.191 122.917Z" fill="#A92D56"/>
<path d="M289.191 122.917V102.228C285.083 102.006 276.571 102.687 267.526 110.248C258.54 117.761 242.355 113.826 237.617 112.081C230.068 109.303 221.427 109.173 212.802 114.653C204.246 120.096 197.204 119.598 189.225 119.555C183.587 119.528 177.051 121.231 173.745 122.214L289.191 122.917Z" fill="#878686"/>
<path d="M194.307 181.605L172.238 180.914C170.176 180.849 168.507 179.022 168.507 176.828C168.507 174.633 170.176 172.904 172.238 172.963L194.307 173.579C196.412 173.639 198.125 175.487 198.125 177.703C198.125 179.924 196.412 181.67 194.307 181.605Z" fill="#878686"/>
<path d="M238.872 182.994L215.962 182.281C213.819 182.216 212.086 180.351 212.086 178.119C212.086 175.887 213.819 174.125 215.962 174.185L238.872 174.823C241.057 174.882 242.834 176.768 242.834 179.027C242.834 181.286 241.057 183.065 238.872 182.994Z" fill="#878686"/>
<path d="M284.141 184.41L260.365 183.67C258.141 183.6 256.343 181.703 256.343 179.427C256.343 177.152 258.141 175.358 260.365 175.422L284.141 176.082C286.413 176.147 288.255 178.065 288.255 180.368C288.255 182.67 286.413 184.481 284.141 184.41Z" fill="#878686"/>
<path d="M30.5225 160.111L152.85 163.019" stroke="#7F7C7C" stroke-miterlimit="10"/>
<path d="M30.5225 153.599L152.85 156.139" stroke="#7F7C7C" stroke-miterlimit="10"/>
<path d="M30.5225 147.081L152.85 149.259" stroke="#7F7C7C" stroke-miterlimit="10"/>
<path d="M30.5225 140.563L152.85 142.379" stroke="#7F7C7C" stroke-miterlimit="10"/>
<path d="M30.5225 134.05L152.85 135.499" stroke="#7F7C7C" stroke-miterlimit="10"/>
<path d="M30.5225 127.532L152.85 128.619" stroke="#7F7C7C" stroke-miterlimit="10"/>
<path d="M30.5225 121.014L152.85 121.739" stroke="#7F7C7C" stroke-miterlimit="10"/>
<path d="M30.5225 114.496L152.85 114.859" stroke="#7F7C7C" stroke-miterlimit="10"/>
<path d="M45.2804 167.51L33.5592 167.197V141.357L45.2804 141.536V167.51Z" fill="#878686"/>
<path d="M61.9065 167.959L50.0076 167.64V134.31L61.9065 134.456V167.959Z" fill="#A92D56"/>
<path d="M78.7857 168.418L66.7038 168.088V128.792L78.7857 128.905V168.418Z" fill="#878686"/>
<path d="M95.9179 168.877L83.653 168.548V112.486L95.9179 112.513V168.877Z" fill="#A92D56"/>
<path d="M113.319 169.348L100.866 169.013V129.11L113.319 129.224V169.348Z" fill="#878686"/>
<path d="M130.995 169.823L118.343 169.483V141.811L130.995 141.995V169.823Z" fill="#A92D56"/>
<path d="M148.941 170.31L136.094 169.964V153.026L148.941 153.274V170.31Z" fill="#878686"/>
<path d="M34.1137 173.72L43.649 174.006" stroke="white" stroke-miterlimit="10" stroke-linecap="round" stroke-linejoin="round"/>
<path d="M50.6753 174.217L60.3613 174.504" stroke="white" stroke-miterlimit="10" stroke-linecap="round" stroke-linejoin="round"/>
<path d="M67.4952 174.72L77.3213 175.012" stroke="white" stroke-miterlimit="10" stroke-linecap="round" stroke-linejoin="round"/>
<path d="M84.5683 175.233L94.5504 175.531" stroke="white" stroke-miterlimit="10" stroke-linecap="round" stroke-linejoin="round"/>
<path d="M101.905 175.752L112.043 176.055" stroke="white" stroke-miterlimit="10" stroke-linecap="round" stroke-linejoin="round"/>
<path d="M119.511 176.276L129.811 176.584" stroke="white" stroke-miterlimit="10" stroke-linecap="round" stroke-linejoin="round"/>
<path d="M137.397 176.811L147.858 177.125" stroke="white" stroke-miterlimit="10" stroke-linecap="round" stroke-linejoin="round"/>
<path d="M298.872 132.618V126.478L315.514 126.603V132.786L298.872 132.618Z" fill="#A92D56"/>
<path d="M298.872 141.222V135.077L320.22 135.31V141.509L298.872 141.222Z" fill="#878686"/>
<path d="M298.872 149.821V143.676L323.892 144.038V150.242L298.872 149.821Z" fill="#A92D56"/>
<path d="M298.872 158.42V152.275L334.439 152.912V159.144L298.872 158.42Z" fill="#878686"/>
<path d="M298.872 167.018V160.873L323.892 161.414V167.618L298.872 167.018Z" fill="#A92D56"/>
<path d="M298.872 175.617V169.472L316.037 169.904V176.087L298.872 175.617Z" fill="#878686"/>
<path d="M298.872 184.216V178.071L309.269 178.368V184.535L298.872 184.216Z" fill="#A92D56"/>
<path d="M200.677 148.124C200.677 158.566 192.644 166.829 182.807 166.586C173.056 166.343 165.206 157.809 165.206 147.524C165.206 137.239 173.051 128.97 182.807 129.056C192.644 129.143 200.677 137.682 200.677 148.124Z" fill="#878686"/>
<path d="M183.658 129.105C183.378 129.089 183.098 129.056 182.812 129.051C173.062 128.965 165.212 137.234 165.212 147.519C165.212 157.803 173.056 166.337 182.812 166.581C183.098 166.586 183.378 166.564 183.658 166.559V129.105Z" fill="#A92D56"/>
<path d="M195.12 148.027C195.12 155.22 189.596 160.927 182.812 160.776C176.071 160.625 170.633 154.734 170.633 147.61C170.633 140.487 176.071 134.785 182.812 134.861C189.591 134.942 195.12 140.833 195.12 148.027Z" fill="white"/>
<path d="M244.783 148.87C244.783 159.506 236.449 167.921 226.246 167.667C216.129 167.413 207.988 158.717 207.988 148.243C207.988 137.769 216.129 129.348 226.246 129.44C236.449 129.532 244.783 138.233 244.783 148.87Z" fill="#A92D56"/>
<path d="M239.012 148.772C239.012 156.101 233.277 161.911 226.24 161.754C219.246 161.598 213.604 155.593 213.604 148.345C213.604 141.098 219.246 135.283 226.24 135.364C233.277 135.439 239.012 141.444 239.012 148.772Z" fill="white"/>
<path d="M290.57 149.648C290.57 160.49 281.912 169.061 271.322 168.796C260.817 168.532 252.37 159.673 252.37 148.999C252.37 138.325 260.817 129.754 271.322 129.845C281.912 129.943 290.57 138.806 290.57 149.648Z" fill="#878686"/>
<path d="M272.226 129.9C271.925 129.883 271.623 129.845 271.316 129.845C260.812 129.754 252.364 138.325 252.364 148.999C252.364 159.673 260.812 168.532 271.316 168.796C271.623 168.802 271.925 168.78 272.226 168.775V129.9Z" fill="#A92D56"/>
<path d="M284.577 149.545C284.577 157.014 278.622 162.932 271.316 162.765C264.053 162.603 258.2 156.479 258.2 149.097C258.2 141.709 264.053 135.791 271.316 135.872C278.622 135.958 284.577 142.082 284.577 149.545Z" fill="white"/>
<path d="M179.016 148.697L187.125 148.837" stroke="#263238" stroke-miterlimit="10"/>
<path d="M222.482 149.448L230.898 149.599" stroke="#263238" stroke-miterlimit="10"/>
<path d="M266.777 150.221L275.51 150.372" stroke="#263238" stroke-miterlimit="10"/>
<path d="M222.859 49.0035L222.924 48.3495L222.735 48.5441L222.859 49.0035Z" fill="#676464"/>
<path d="M197.694 58.6021L198.135 58.6669L199.131 58.3589L197.694 57.8995L197.893 58.3643L197.312 58.4994L197.694 58.6021Z" fill="#676464"/>
<path d="M209.006 66.5576L206.804 65.6767L206.411 65.9091L206.47 65.5794L205.759 65.0984L204.952 65.4443L205.21 65.0389L204.602 64.866L204.408 65.1362L204.79 64.4174L204.327 63.3905L203.81 62.9365L202.642 62.7852L202.61 62.796L201.77 61.9475L201.334 61.9043L201.414 61.6178L200.967 61.4341L201.005 61.2395L200.752 61.1584L200.176 61.4071L199.218 61.1584L198.733 60.7099L198.647 60.9314L198.243 61.2071L198.345 61.7097L198.028 61.5962L198.162 61.1422L198.125 60.9044L198.2 60.8342L198.275 60.618L197.408 61.0936L197.269 61.072L196.585 62.1096L196.52 62.1259L196.332 61.861L195.912 61.6394L195.486 61.834L195.007 61.8286L194.517 61.1801L194.695 59.7532L194.361 59.4884L193.171 59.5371L193.166 59.5425L193.047 59.4614L193.22 58.7102L193.284 58.6669L193.634 57.5211L192.907 57.4833L192.24 58.521L191.314 58.6777L190.974 58.4994L190.485 57.7103L190.501 55.9322L190.377 55.8836L190.501 55.9322L190.415 55.489L190.485 55.1593L191.502 54.3595L192.493 54.5864L192.627 54.4621L192.891 54.6675L192.767 54.3054L193.236 54.0892L193.354 54.1757L193.753 54.1108L194.033 54.3324L194.237 54.3649L194.517 54.2514L195.271 56.0079L195.497 56.0511L195.632 55.6403L195.217 53.9541L196.574 52.4246L196.601 52.1922L196.676 52.0679L196.881 52.0787L196.956 51.8679L196.757 51.522L196.752 51.3545L196.558 51.0681L196.676 50.9437L196.725 50.4898H196.822L196.875 51.2356L197.01 51.1329L197.069 50.533L197.279 50.5114L197.441 50.079L198.044 49.825L197.586 49.8196L198.071 49.6304L198.216 49.4791L198.469 49.4953L198.388 49.2305L198.62 48.6738L199.013 48.2901L199.384 48.2955L200.273 47.6361L200.294 47.7821L200.569 47.8956L199.955 48.209L199.923 48.5927L200.316 48.5009L200.601 48.209L201.296 47.9766L201.355 47.7983L201.753 47.6199L201.64 47.4848L201.635 47.247L201.15 47.7442L200.617 47.6523L200.289 47.3551L200.251 47.0038L200.117 46.8903L200.09 46.7552L200.381 46.3012L199.083 46.5822L198.431 47.2416L199.18 46.2472L199.492 46.1337L199.713 45.8202L201.587 45.6635L202.96 44.8149L202.933 44.669L202.846 44.5717L203.024 44.3609L202.863 44.0961L202.545 44.1502L202.523 43.8745L201.77 44.1718L201.694 44.0367L202.475 43.6692L201.016 42.745L201.048 42.6531L201.29 42.491L200.354 40.7723L200.079 41.1344L199.977 41.5343L199.869 41.6695L199.691 41.7073L199.39 41.9127L198.9 41.4803L198.749 40.8588L198.851 40.5669L198.168 40.3507L197.543 39.7887L197.247 39.913L196.337 39.7941L196.213 40.0481L196.407 40.2805L196.24 40.6156L196.45 41.1128L196.143 41.8532L196.595 42.2532L196.66 43.0098L196.235 43.5016L195.815 43.6908L196.062 44.7771L195.998 45.0689L196.046 45.2419L195.912 45.2311L195.745 45.4473L195.492 45.3446L194.969 44.5771L194.98 43.7718L194.813 43.5611L192.331 42.5828L191.89 42.7504L191.927 42.5828L191.577 41.8586L191.249 41.7775L191.443 40.5507L192.455 39.459L191.556 39.059L192.584 39.2266L192.66 38.9239L193.101 38.9942L193.527 38.4753L192.778 38.1294L192.8 37.9403L193.397 38.2592L193.844 37.87L193.672 37.6755L193.903 37.5566L194.097 37.7133L194.415 37.6647L194.248 37.4268L194.302 37.335L194.506 37.5349H194.765L195.206 37.1566L194.964 36.5459L194.969 36.4L195.266 36.2703L195.088 35.919L194.054 35.6163L194.081 35.946L194.173 36.1135L194.119 36.2703L193.925 36.427L193.78 36.7729L193.645 36.5621L193.607 36.8323L193.72 37.0431L193.51 37.2161L193.144 36.7134L193.268 36.5567L193.263 36.3297L193.063 36.0973L192.784 36.0271L192.541 36.5513L192.444 36.1406L192.557 35.8541L192.261 35.7244L192.035 35.8001L192.046 35.5028L192.218 35.4271L191.771 35.038L191.782 34.73L191.4 34.4381L191.33 34.2868L191.545 34.0976L191.61 33.7571L192.073 33.7896L192.504 33.0978L191.707 32.8492L191.088 32.9843L191.168 33.1896L190.974 33.1734L191.141 34.3408L190.958 34.5462L191.05 34.7516L190.808 34.73L190.818 35.6595L191.421 35.8865L191.324 36.3405L191.47 36.2162L191.604 36.4054L191.109 36.7621V37.0972L190.953 37.2323L190.797 36.9566L190.834 36.6864L190.49 36.5837L190.705 36.5405L190.861 36.4L191.206 36.3567L191.039 36.0649L190.802 36.0487L191.044 35.9892L190.538 35.8001L189.892 36.146L190.382 36.5027L190.124 36.6918L190.102 36.9134L188.46 36.8269L188.196 36.681L188.046 36.4108L187.561 36.4486L187.125 36.681L187.254 36.8215L187.927 36.5675L187.442 36.881L187.405 37.616L187.222 37.5295L187.189 37.2485L185.16 37.0972L185.493 36.8215L185.38 36.5675L183.458 36.0541L182.451 36.2595L182.462 36.0379L182.365 35.773L181.967 36.2703L181.52 35.6001L181.342 35.6649L181.019 36.0919L179.797 36.7513L179.867 36.5567L180.901 35.8865L180.648 35.8541L179.646 36.3405L179.426 36.2162L179.022 36.5729L179.14 36.7675L174.133 35.8271L174.041 35.6541L173.535 35.6758L173.39 35.546L173.013 35.6487L173.132 35.492L172.9 35.3731L171.861 35.8379L171.925 36.0162L171.285 36.0973L170.94 36.4432L170.816 36.8107L170.079 37.0053L170.003 37.2215L170.806 38.0268H171.301L171.398 38.3186L171.71 38.3835L170.736 38.5942V38.3618L170.375 38.3889L170.213 38.5996L169.96 38.6375L169.556 38.9131L169.976 39.0969L169.923 39.2644L170.143 39.5076L171.032 39.5184L171.549 39.2914L171.462 39.5292L171.495 39.9832L171.139 40.0265L170.983 40.3129L170.612 40.2048L170.493 40.5561L170.203 40.8155L170.057 41.1236L170.321 41.3182L170.31 41.6424L170.671 42.0316L171.016 41.9613L171.166 41.8154L171.258 42.5396L172.162 42.5774L172.286 42.3991L172.604 42.4261L172.507 43.1341L171.656 43.9772L171.204 44.0421L170.989 44.4204L173.783 42.3721L173.551 42.2423L174.585 41.1074L174.763 41.1884L174.768 41.3182L174.461 41.3938L174.343 41.7073L174.364 41.9559L174.262 42.1126L174.381 42.2207L174.962 41.8316L175.387 41.7992L175.393 41.6262L175.264 41.4263L175.361 41.2587L175.964 41.3776L175.834 41.4965L175.867 41.6154L176.276 41.5181L176.34 41.583L177.31 41.6532L177.568 41.8478L177.929 41.7019L177.87 41.9181L178.704 42.5396L178.876 42.3666L179.113 42.5018L179.14 42.2153L179.259 42.2423L179.28 42.6909L179.065 42.6423L178.86 42.7071L179.329 43.4584L179.35 42.8585L179.388 43.1017L179.566 42.9828L179.56 42.6585L179.738 42.8909L179.641 43.1287L179.479 43.226L179.512 43.5827L179.63 43.4584L179.819 43.4097L180.066 43.6313L179.948 43.4692L179.953 43.28L180.185 43.6151L180.023 43.7772L179.77 43.6421L179.813 44.242L179.91 44.1231L180.072 44.188L180.136 43.9988L180.287 44.0583L180.427 43.9718L180.454 44.215L180.578 44.2366V44.2745L180.702 44.4474L180.621 44.5933L180.675 44.8528L180.928 44.8311L180.992 45.0257L181.358 45.3068L181.428 45.8472L182.198 46.1985L182.311 46.3985L182.71 46.5228L182.963 46.8795L183.017 47.2362L182.925 47.5875L182.791 47.0795L182.823 46.9389L181.951 46.1931L181.256 46.058L182.193 46.9011L182.613 47.8847L182.651 51.1383L183.641 52.7867L184.26 53.0083L185.52 55.3323L185.283 55.3593L185.973 55.8944L186.059 56.3213L186.716 57.0996L186.861 56.9915L186.796 56.7213L186.549 56.6024L185.72 54.9377L185.752 54.754L185.52 54.6459L185.257 53.873L185.364 53.8298L185.822 54.0027L185.93 54.8242L188.132 57.6022L188.121 57.8562L188.029 57.9805L188.266 58.4021L190.425 59.5371L191.567 59.5641L191.89 59.8451L192.218 60.1586L193.225 60.4612L193.322 60.4126H193.413L193.489 60.672L193.952 61.2071L193.93 61.3422L194.011 61.6394L194.183 61.5962L195.373 62.4664L195.605 62.3907L195.519 62.2015L195.68 62.0286L196.014 61.8989L196.369 62.5961L196.418 63.8878L195.96 64.4931V64.5417L195.756 64.666L195.357 65.7794L195.529 65.9523L195.675 65.9901L195.54 66.2063L195.513 66.2117L195.266 66.5198L195.379 66.99L195.287 67.0819L196.875 70.1301L198.566 71.411L197.333 80.8582L197.473 81.0852L197.608 80.4637L197.721 80.334L197.802 80.4637L197.688 81.9283L197.538 82.031L197.565 82.258L197.371 82.1661L197.505 81.9337L197.344 81.6851L197.446 81.9607L197.112 82.1931L197.123 82.3607L196.94 82.5715L197.322 82.6039L197.349 82.7822L197.258 82.9984L197.538 83.0254L197.543 83.1606L197.166 83.1281L196.967 83.3227L197.08 83.474L197.225 83.3659L197.349 83.3821L197.037 83.7388L197.177 83.9875L197.398 83.6848L197.312 84.1928L197.134 84.4144L197.129 84.6198L197.441 84.5712L197.5 84.6847L197.36 84.8468L197.538 84.8684L197.635 84.8306L197.828 84.9062L197.565 85.0305L197.478 85.2359L197.699 85.1494L198.157 85.1765L197.618 85.4089L197.624 85.544L198.232 85.3332L197.855 85.6521L197.538 85.6088L197.57 85.8358L198.022 85.9926L197.968 85.8791L198.588 85.1981L198.501 85.5656L198.776 85.5764L198.609 85.7331L198.62 85.9764L198.496 85.6953L198.437 85.9115L198.291 85.8521L198.06 86.1223L198.281 86.1763L198.431 86.479L198.539 86.2087L198.749 86.5276L198.857 86.4033L199.169 86.6627L199.131 86.4357L200.063 86.2574L199.126 85.544L199.153 85.3981L199.051 85.2143L198.781 85.0846L198.814 85.0305L199.099 85.0738L198.905 84.4955L198.965 84.1712L199.874 83.0579L199.928 82.7228L199.627 82.6363L199.422 82.1121L199.912 81.7824L200.278 80.7501L200.445 80.8636L200.564 80.5934L200.359 80.6582L200.192 80.5664L200.133 79.9827L200.612 80.1232L200.957 79.9178L200.973 79.3449L201.08 79.2044L201.85 79.1395L202.421 78.8099L202.696 78.3559L202.136 77.3884L202.243 77.3668L202.75 77.5398L203.439 77.4641L204.365 75.7509L204.392 76.1778L205.081 75.1239L205.269 73.8538L206.443 72.9891L207.213 72.8864L208.069 71.0543L208.15 69.3032L208.204 69.2005L208.392 69.2653L209.345 67.7737L209.286 66.7684L209.006 66.5576ZM199.034 86.3331L199.018 86.2898L199.034 86.3331Z" fill="#878686"/>
<path d="M197.365 57.8562L195.363 56.8456L194.302 57.2942L194.819 57.0077L196.251 57.6346L196.396 57.9103L197.365 57.8562Z" fill="#676464"/>
<path d="M196.132 58.5588L196.741 58.6669L196.132 58.5588Z" fill="#676464"/>
<path d="M199.541 58.5156L200.036 58.5048L199.541 58.5156Z" fill="#676464"/>
<path d="M192.24 65.0389L192.428 65.3848L192.24 65.0389Z" fill="#676464"/>
<path d="M213.259 34.8326L212.053 34.8056L212.193 34.2489L213.286 34.6381L213.394 34.1679L212.608 33.395L213.055 33.4437L213.34 33.0707L212.613 33.087L212.484 32.8654L212.597 32.5735L213.27 32.7789L213.782 32.6168L213.378 32.2006L214.051 32.1033L214.132 31.8655L213.582 31.4926L214.115 31.3737L213.97 30.7414L213.432 30.6062L213.205 30.3468L214.444 30.2441L214.255 29.882L213.755 29.7739L214.169 29.655L213.313 29.5523L213.502 28.8984L214.546 28.0391L214.336 27.7688L213.835 27.9742L214.25 27.6715L215.009 27.5202L214.455 27.3851L216.339 26.4987L215.3 26.1961L214.681 26.5474L214.062 26.6068L213.792 26.5042L212.689 27.3743L213.189 26.6393L213.001 26.142L211.649 26.8176L212.274 26.342L210.002 26.5636L213.432 25.7151L208.624 25.1152L208.117 25.4286L205.835 25.5313L206.136 25.8394L205.603 26.0394L206.368 26.5636L204.499 26.0556L204.865 26.5258L204.446 26.5582L203.891 26.2339L203.864 26.6717L203.616 26.9149L203.455 26.2177L201.307 26.8555L201.398 27.3689L200.822 27.2878L199.465 28.185L200.197 28.2877L199.95 28.9308L197.872 29.7037L198.044 29.9577L199.826 30.336L198.286 30.6116L198.825 30.7576L198.835 31.0332L199.191 31.244L200.741 31.0494L202.184 31.6601L203.245 33.3842L203.094 33.8166L203.234 34.2814L203.686 34.0436L203.794 34.3895L204.376 34.6867L204.252 34.8326L203.449 34.7894L204.257 35.1893L204.526 35.5406L204.462 36.0271L204.079 36.0595L203.589 36.8269L203.886 37.1188L203.654 37.4323L204.069 37.9187L204.122 38.5132L204.828 39.74L206.68 40.8642L206.906 40.5885L207.03 39.5022L207.536 38.8104L207.547 38.5618L207.66 38.3943L207.601 38.1403L207.644 38.0051L208.349 37.3944L208.5 37.3782L208.564 37.562L209.124 37.4106L210.174 36.2811L213.146 35.011L213.259 34.8326Z" fill="#878686"/>
<path d="M204.16 35.492L203.918 35.2434L203.331 35.1407L203.288 35.438L203.616 35.6541L204.16 35.492Z" fill="#676464"/>
<path d="M192.03 32.2438L192.864 32.5087L193.074 32.3952L195.524 32.4222L195.788 31.8655L192.767 31.7034L192.864 31.3791L191.438 30.9359L190.684 31.0819L192.019 31.7142L192.03 32.2438Z" fill="#676464"/>
<path d="M195.734 40.2913L195.772 39.9076L195.734 40.2913Z" fill="#676464"/>
<path d="M188.993 35.7622L189.418 35.7298L188.417 35.0326L188.218 33.2815L187.642 33.4545L188.008 33.8112L187.599 33.6382L187.286 33.649L187.48 34.4813L187.297 34.6705L187.071 34.0814L186.522 33.8544L186.743 34.1409L186.403 34.1787L185.838 33.849L185.639 34.1733L185.418 34.076L185.472 33.6761L184.185 34.2814L184.094 34.5246L184.352 34.9732L185.052 34.8489L184.277 35.2218L186.156 35.5406L184.524 35.8811L186.258 36.6486L187.588 36.1676L189.128 36.3027L188.928 36.0054L188.708 36L188.993 35.7622Z" fill="#676464"/>
<path d="M194.566 39.9886L195.072 39.5941L194.566 39.9886Z" fill="#676464"/>
<path d="M203.003 45.2311L202.863 45.123L201.985 46.8741L203.148 46.8309L203.078 47.0795L203.331 46.9498L203.891 47.0795L203.74 46.5931L203.616 46.512L203.638 46.1769L203.126 46.058L202.997 45.858L202.766 45.8742L202.793 45.6256L203.003 45.2311Z" fill="#676464"/>
<path d="M200.38 45.9499L201.204 46.2526L200.38 45.9499Z" fill="#676464"/>
<path d="M195.524 39.1185L194.156 38.0592L193.828 38.3024L193.494 39.2428L193.866 39.2158L194.027 39.486L194.528 39.1509L195.524 39.1185Z" fill="#676464"/>
<path d="M188.6 32.3249L188.325 32.1682L188.6 32.3249Z" fill="#676464"/>
<path d="M197.058 36.9945L197.102 36.5351L196.714 36.4378L196.45 36.9837L197.058 36.9945Z" fill="#676464"/>
<path d="M189.876 34.757L190.404 34.5732L190.802 33.7193L190.619 33.6815L190.576 33.8166L190.21 33.6652L190.592 33.2869L190.382 32.9734L189.311 33.4491L189.639 33.7409L189.047 33.6977L189.876 34.757Z" fill="#676464"/>
<path d="M182.844 35.2488L185.073 33.5517L184.707 33.1842L183.329 32.8762L182.403 33.0761L182.532 33.3896L182.058 34.4381L182.844 35.2488Z" fill="#676464"/>
<path d="M192.703 30.4225L192.412 30.6927L192.703 30.4225Z" fill="#676464"/>
<path d="M184.002 32.1736L184.46 31.8061L184.002 32.1736Z" fill="#676464"/>
<path d="M179.889 44.6042L180.341 45.3446L180.201 44.8203L179.889 44.6042Z" fill="#676464"/>
<path d="M191.712 30.3306L190.84 30.5468L191.712 30.3306Z" fill="#676464"/>
<path d="M198.254 34.4922L197.801 34.5246L196.45 33.7085L196.116 34.0111L195.933 33.9409L195.443 34.1409L195.454 33.5572L195.244 33.1518L194.663 33.168L194.027 33.4815L194.119 33.9841L193.957 34.3084L194.275 34.557L193.774 34.3462L193.71 33.9031L193.866 33.4112L194.173 33.0924L192.993 33.4653L192.719 34.6651L193.349 34.784L193.284 34.9407L192.837 35.0002L194.98 35.5893L195.282 35.4272L195.96 35.5136L195.917 35.3028L195.987 35.1299L196.951 35.8811L196.66 36.1838L197.128 36.0162L197.855 36.6648V37.2593L198.345 37.1999L198.814 37.4485L198.372 37.7079L197.618 37.4052L197.538 37.9889L196.434 38.2808L196.262 38.7185L197.672 38.6159L198.017 38.9564L198.189 39.3941L199.837 40.0211L199.051 39.1239L200.316 39.2428L199.357 37.8754L199.438 37.4917L199.864 37.6484L200.3 38.124L200.924 37.8106L201.312 37.3566L199.25 35.9946L199.664 35.8757L199.314 35.6866L199.492 35.5298L199.331 35.2434L199.115 35.3731L199.169 35.0921L198.491 34.7786L198.108 34.8813L198.001 34.7786L198.254 34.4922Z" fill="#676464"/>
<path d="M195.4 33.0707L195.589 33.4923L196.041 33.6436L196.757 33.4869L195.998 33.0815L195.4 33.0707Z" fill="#676464"/>
<path d="M186.732 30.4063L186.549 30.2766L185.8 30.5738L186.193 30.8657L186.732 30.4063Z" fill="#676464"/>
<path d="M188.282 29.5956L188.681 29.7956L188.207 29.8982L189.93 30.2117L189.811 29.8334L189.138 29.3686L188.089 29.2335L188.282 29.5956Z" fill="#676464"/>
<path d="M185.639 30.5198L185.246 30.4387L185.639 30.5198Z" fill="#676464"/>
<path d="M188.374 30.8711L187.927 30.4711L188.374 30.8711Z" fill="#676464"/>
<path d="M184.955 31.6385L184.998 31.8655L184.745 32.1628L185.052 32.152L184.524 32.3681L185.31 32.4168L185.547 32.3033L186.113 32.3303L185.682 32.6168L185.666 32.941L187.809 32.4114L187.916 31.7088L187.588 31.8547L187.033 31.1899L186.721 31.5791L186.743 31.8061L186.969 32.0601L185.273 31.4115L184.955 31.6385Z" fill="#676464"/>
<path d="M183.017 31.9736L183.464 31.7466L183.674 32.0168L184.287 31.2656L184.379 31.5629L184.89 31.3359V31.0764L185.073 30.8873L184.842 30.7414L184.653 30.8873L184.26 30.8549L182.909 31.779L183.017 31.9736Z" fill="#676464"/>
<path d="M186.086 30.136L186.942 29.9901L186.296 29.828L185.73 30.1198L186.086 30.136Z" fill="#676464"/>
<path d="M190.802 28.7741L191.093 29.1308L191.965 29.1362L191.437 29.4443L192.557 30.0009L192.983 29.9685L193.591 29.2767L194.092 29.0605L193.51 28.6984L193.376 28.385L191.437 27.5635L191.459 27.7148L191.012 28.0391L191.066 28.4174L190.802 28.7741Z" fill="#676464"/>
<path d="M190.646 30.2928L191.174 30.1685L191.195 29.9091L190.258 29.574L190.646 30.2928Z" fill="#676464"/>
<path d="M190.091 28.8173L189.693 28.6606L190.091 28.8173Z" fill="#676464"/>
<path d="M191.421 31.9898L190.668 32.3519L191.567 32.5681L191.421 31.9898Z" fill="#676464"/>
<path d="M189.537 31.0927L189.628 31.4872L189.284 31.3899L189.182 31.6385L188.993 31.6602L188.509 31.1575L188.471 31.5845L188.945 31.952L189.655 31.9088L189.591 32.3411L190.21 32.3519L190.458 32.0709L190.431 31.7196L190.091 31.2116L189.537 31.0927Z" fill="#676464"/>
<path d="M192.401 27.2122L192.574 27.25L192.692 27.3851L192.595 27.6175L192.875 27.8229H193.629L193.72 27.9904L195.842 27.5959V27.8877L194.862 28.1634L195.228 28.6119L193.785 28.2498L193.801 28.7957L194.937 29.5848L194.13 29.428L193.365 29.8496L194.081 29.8442L194.011 30.0604L194.356 30.5036L193.957 30.4711L193.446 30.1847L193.392 30.736L192.784 31.1089L196.159 31.071L196.289 30.763L195.309 30.6549L195.325 30.4603L196.106 30.4009L196.159 30.0658L196.714 30.0009L197.312 29.2767L196.515 29.1038L197.193 28.8822L197.565 28.5471L198.146 28.5741L200.343 27.1365L199.449 27.1041L201.075 26.5582L201.15 26.2177L200.343 25.9259L199.664 26.0556L199.783 25.8394L194 26.515L193.51 26.8987L193.047 26.8392L192.81 27.0608L192.175 27.1419L192.401 27.2122Z" fill="#676464"/>
<path d="M170.45 44.6798L170.838 44.442L170.45 44.6798Z" fill="#676464"/>
<path d="M173.901 42.6801L173.643 43.0368L173.428 43.1287L173.551 43.3935L173.708 43.3881L174.09 43.0584L173.982 42.8585L174.187 42.7396L174.133 42.572L173.901 42.6801Z" fill="#676464"/>
<path d="M169.993 41.7992L169.734 41.9127L170.143 42.0424L170.203 41.8046L169.993 41.7992Z" fill="#676464"/>
<path d="M221.055 49.7764L220.792 49.8898L221.055 49.7764Z" fill="#676464"/>
<path d="M227.947 51.3653L227.274 51.3059L227.086 51.3977L227.533 51.522L227.947 51.3653Z" fill="#676464"/>
<path d="M230.252 51.441L230.413 51.214L230.408 51.1491L229.972 51.3059L229.832 51.5599L230.252 51.441Z" fill="#676464"/>
<path d="M215.381 38.2592L215.854 37.7673L215.478 37.108L215.273 37.1296L214.977 36.9783L214.945 37.1891L214.465 37.2539L214.309 37.1999L214.11 37.362L213.986 37.2971L213.846 37.4052L213.808 37.5674L213.609 37.6755L213.529 37.3998L213.071 37.0647L213.114 37.2593L213.001 37.2539L212.802 37.3458L212.651 37.5836L213.313 37.643L213.254 37.816L212.748 38.0376L213.189 38.0322L213.389 38.2754L213.13 38.551L213.518 38.5294L214.067 38.7618L215.381 38.2592Z" fill="#676464"/>
<path d="M217.163 44.7122L218.062 44.3501L218.057 43.4908L218.293 43.3179L218.121 42.9287L217.4 43.0855L217.54 43.2422L217.292 43.3935L216.969 43.4097L217.147 43.9124L217.066 44.2096L216.861 44.442L217.163 44.7122Z" fill="#676464"/>
<path d="M218.083 41.3128L217.879 41.6316L218.083 41.3128Z" fill="#676464"/>
<path d="M218.003 41.783L218.223 41.9829L218.11 42.2423L218.272 42.4207L218.024 42.6423L218.24 42.5504L218.363 42.7612L218.541 42.4801L218.563 42.7234L218.455 43.0747L218.891 43.0152L219.101 43.4584L219.074 43.7718L218.767 43.7989L218.67 43.8583L218.579 44.0745L218.762 44.2042L218.466 44.4474L218.584 44.5879L219.085 44.6744L219.112 44.7609L218.773 44.8203L218.385 45.377L218.611 45.2257L218.837 45.2743L218.972 45.1122L219.429 44.9879L219.677 45.0473L220.442 44.7555L220.312 44.6852L220.334 44.4799L220.587 44.1394L220.119 43.9502L220.113 43.761L219.376 42.572L219.101 42.5288L219.446 41.6857L218.88 41.6695L218.778 41.556L219.01 41.2641L219.053 41.0587L218.918 41.1993L218.59 41.2155L218.191 41.8532L218.003 41.783Z" fill="#676464"/>
<path d="M223.618 43.053L223.839 42.7558L223.909 42.3775L223.807 42.4639L223.704 42.3829L223.505 42.4856L223.624 42.8044L223.538 42.9017L223.618 43.053Z" fill="#676464"/>
<path d="M225.729 41.3776L225.524 41.837L225.729 41.3776Z" fill="#676464"/>
<path d="M226.951 40.7885L226.757 40.8209L226.951 40.7885Z" fill="#676464"/>
<path d="M226.693 41.2479L227.01 41.0047L226.811 40.9398L226.693 41.2479Z" fill="#676464"/>
<path d="M225.584 27.5256H226.698L226.057 27.7959L227.145 28.0066L228.313 27.277L227.247 27.1365L227.08 27.2338L226.903 27.0122L226.849 27.3581L226.601 27.2122L226.353 27.2013L226.02 26.996L226.036 27.1527L225.815 27.0878L225.82 27.2824L225.589 27.1041L225.46 27.2392L225.616 27.3905L225.584 27.5256Z" fill="#676464"/>
<path d="M223.457 28.7146L223.678 28.8822L223.268 28.412L223.457 28.7146Z" fill="#676464"/>
<path d="M223.737 28.0823L223.559 28.4282L223.866 28.8065L224.302 28.8227L224.625 28.385L224.652 28.5903L224.916 28.5525L225.04 28.666L224.189 29.0713L224.469 29.1848L225.083 29.1362L224.238 29.4443L224.544 29.7091L224.841 29.7415L224.695 29.8766L224.943 30.0388L225.147 29.9631L225.869 28.5903L226.235 28.4552L226.294 28.5309L226.343 28.7903L226.45 28.9092L226.397 29.2443L226.693 29.3091L226.86 29.4767L227.516 29.0497L227.043 28.9308L226.989 28.7957L226.752 28.6984L226.58 28.5147L226.52 28.3147L225.74 28.0391L225.616 27.7688L225.368 27.9039L225.449 27.6499L225.126 27.5418L224.964 27.3797L224.851 27.7202L225.04 28.239L224.491 27.6391L224.367 27.9202L224.286 27.985L224.054 27.785L224.313 27.6661L224.135 27.6013L223.661 27.6445L223.419 27.7742V28.1255L223.737 28.0823Z" fill="#676464"/>
<path d="M263.66 47.2254L263.396 47.3551L263.218 47.7821V48.0523L263.547 47.928L263.358 47.674L264.096 47.7496L264.764 47.4037L265.275 46.7822L264.667 46.9768L263.978 46.4309L263.768 46.539L263.66 47.2254Z" fill="#676464"/>
<path d="M260.063 51.4734L259.934 51.7274L260.106 51.6193L260.279 52.3976L260.629 51.7923L260.564 51.5653L260.354 51.3923L260.063 51.4734Z" fill="#676464"/>
<path d="M262.125 50.1006L261.926 50.4627L260.882 50.6465L260.397 51.068V51.2734L261.539 50.9329L261.668 51.2464L262.039 51.214L262.152 50.9708L262.244 50.9167L262.879 50.8897L263.068 50.6789L263.369 50.6195L263.525 49.5656L263.816 49.171L263.665 48.2306L263.267 48.3658L263.052 49.317L262.562 49.9223L262.357 49.8142L262.125 50.1006Z" fill="#676464"/>
<path d="M261.043 51.6139L261.312 51.495L261.528 51.1761L261.21 51.1383L260.909 51.241L260.866 51.7166L261.043 51.6139Z" fill="#676464"/>
<path d="M257.075 55.8836L257.463 54.7756L256.908 55.2782L257.075 55.8836Z" fill="#676464"/>
<path d="M253.812 57.2185L253.979 56.7969L253.592 56.7753L253.285 57.2617L253.812 57.2185Z" fill="#676464"/>
<path d="M258.583 60.5369L258.217 60.8936L257.937 60.8233L257.576 61.072L257.457 61.4395L257.969 61.1692L258.227 61.7692L258.55 61.9529L258.545 61.5043L258.879 61.3368L258.803 60.5531L258.583 60.5369Z" fill="#676464"/>
<path d="M256.784 58.0724L256.951 58.8237L257.937 59.3371L258.319 60.2397L258.561 59.9316L258.48 59.5046L257.91 58.9209L257.474 58.8453L257.318 58.5264L257.527 58.0184L257.457 57.3158L257 57.2833L256.935 58.1157L256.784 58.0724Z" fill="#676464"/>
<path d="M256.962 59.1371L257.258 59.51L256.962 59.1371Z" fill="#676464"/>
<path d="M256.386 60.364L255.988 60.9585L256.553 60.3477L256.639 59.9694L256.386 60.364Z" fill="#676464"/>
<path d="M258.276 60.3694L258.039 60.5369L258.276 60.3694Z" fill="#676464"/>
<path d="M257.937 60.0721L257.463 59.6614L257.484 60.1424L257.651 60.0343L257.727 60.7045L258.06 60.1316L257.937 60.0721Z" fill="#676464"/>
<path d="M266.896 65.5091L266.514 65.7686L265.841 65.8118L266.352 66.0658L267.009 65.6875L267.106 65.3686L266.896 65.5091Z" fill="#676464"/>
<path d="M267.321 65.4605L267.213 65.1038L267.122 65.1308L267.321 65.4605Z" fill="#676464"/>
<path d="M265.587 65.9956L262.395 64.3958L261.603 65.0606L261.264 64.185L260.548 64.0931L260.279 64.3309L260.446 64.4174L260.623 64.6552L261.124 64.6822L261.097 64.7849L260.639 64.8984L260.839 65.2065L262.545 65.7956L262.723 66.2009L262.712 66.5198L262.416 66.8063L263.143 66.7522L263.816 67.1576L264.387 66.6441L265.049 66.8008L265.744 67.4818L266.411 67.6115L266.363 67.39L265.819 66.99L265.517 66.228L265.587 65.9956Z" fill="#676464"/>
<path d="M244.686 60.7099L244.557 61.5097L244.713 62.0286L245.192 61.5205L244.686 60.7099Z" fill="#676464"/>
<path d="M234.941 68.5519L234.828 68.6546L234.785 68.9032L234.446 69.2221L234.435 69.4059L233.39 69.9733L233.105 72.627L233.304 73.2864L233.854 73.4377L234.171 73.2972L235.092 69.8328L235.275 69.7896L234.941 68.5519Z" fill="#676464"/>
<path d="M236.282 59.8667L236.594 59.7911L236.282 59.8667Z" fill="#676464"/>
<path d="M265.168 79.4476L264.629 79.2855L264.774 79.9881L265.194 80.5339L265.372 80.3934L265.442 80.2097L265.625 80.2475L265.701 79.3179L265.168 79.4476Z" fill="#676464"/>
<path d="M260.02 68.1358L260.424 68.0223L260.02 68.1358Z" fill="#676464"/>
<path d="M261.996 77.302L262.379 77.2425L261.996 77.302Z" fill="#676464"/>
<path d="M267.45 74.0754L267.359 73.2215L266.67 72.454L266.562 72.0865L266.433 71.9676L266.25 71.9893L265.948 71.2272L265.216 70.757L264.618 69.0059L264.376 69.0167L263.978 67.671L263.773 67.9358L263.525 69.7842L263.262 70.2057L261.754 69.2329L261.808 68.7573L262.012 68.5898L262.12 68.352L262.05 68.1844L261.926 68.3249L261.808 68.1412L261.571 68.2547L260.661 67.8493L260.78 68.0871L260.3 68.2601L259.859 68.9465L259.87 69.2491L259.509 69.3086L258.965 68.8546L258.782 68.9735L258.685 69.141L258.437 69.1518L258.384 69.3086L258.238 69.4329L258.174 69.7788L257.942 69.7572L257.991 70.022L257.894 70.2057L257.77 69.9409L257.522 70.0868L257.511 70.503L257.059 71.011L255.132 71.8163L254.965 72.0757L254.932 71.8595L254.771 72.119L254.728 73.0864L254.911 73.5512L254.722 73.3728L254.814 73.6214L254.593 73.4377L255.455 75.7022L255.385 76.1724L255.202 76.4643L255.288 76.6967L255.519 76.9237L256.128 76.9831L260.311 75.5239L261.248 75.8806L261.269 76.1022L261.549 76.394L261.63 76.7885L262.47 76.0913L262.136 76.875L262.432 76.8426L262.61 76.7345L262.567 77.129L262.799 77.1128L263.229 78.0478L264.193 78.4478L264.591 78.1829L264.726 78.237L264.78 78.3451L264.866 78.2748L265.184 78.5667L265.625 78.1235L266.287 77.9776L267.45 74.0754Z" fill="#878686"/>
<path d="M271.984 82.0208L272.103 81.8635L271.984 82.0208Z" fill="#676464"/>
<path d="M234.828 34.9515L235.404 34.8002L235.13 34.5786L234.828 34.9515Z" fill="#676464"/>
<path d="M236.061 33.195L236.12 33.4491L236.239 33.3356L236.874 33.7571L237.682 33.7355L237.262 33.3248L237.149 32.5681L238.032 31.1899L241.257 29.3956L237.434 30.6387L237.095 31.3467L236.831 31.5088L236.712 31.9574L236.217 32.3087L236.319 32.5411L235.754 32.9951L236.061 33.195Z" fill="#676464"/>
<path d="M248.261 25.807L247.847 25.8826L248.261 25.807Z" fill="#676464"/>
<path d="M264.371 31.2818L263.956 30.8495L263.434 31.1413L264.371 31.2818Z" fill="#676464"/>
<path d="M263.622 30.6116L263.321 30.7576L263.622 30.6116Z" fill="#676464"/>
<path d="M248.994 26.8176L248.778 27.1365L250.2 27.6067L250.555 26.9419L249.86 26.5798L248.994 26.8176Z" fill="#676464"/>
<path d="M250.426 28.239L252.332 27.6716L251.923 27.3851L251.47 27.504L251.508 27.3149L251.32 27.0933L250.986 27.2392L250.878 27.5256L250.647 27.731L250.426 28.239Z" fill="#676464"/>
<path d="M262.664 30.2225L263.994 30.0982L263.967 29.6875L264.548 30.055L264.769 29.7469L264.688 29.4443L264.005 29.3199L263.552 29.4605L262.949 29.1524L262.416 30.0009L262.664 30.2225Z" fill="#676464"/>
<path d="M264.258 42.6423L264.048 42.2315L263.854 46.0526L264.058 45.8202L264.333 46.0742L264.058 45.3446L264.155 44.7663L264.527 44.7123L264.629 44.6474L264.258 42.6423Z" fill="#676464"/>
<path d="M254.426 30.7197L254.238 30.8927L254.808 30.7684L254.426 30.7197Z" fill="#676464"/>
<path d="M266.018 30.1685L266.777 29.9739L265.464 29.6496L265.248 29.8982L266.018 30.1685Z" fill="#676464"/>
<path d="M248.504 26.542L248.428 26.6771L248.208 26.8122L248.482 27.0122L249.71 26.4285L249.796 26.1312L249.435 25.6124L248.633 26.0556L248.493 26.2988L248.504 26.542Z" fill="#676464"/>
<path d="M278.644 35.7298L279.005 35.8055L278.929 35.7082L278.999 35.6758L279.177 35.692L279.382 35.3947L278.321 34.8489L277.906 34.8543L278.052 35.011L278.003 35.238L277.799 35.1461L277.782 34.784L277.659 34.6002L273.098 33.0978L272.996 33.3248L273.152 33.6058L273.071 33.9571L272.323 33.568L272.711 33.3626L272.312 33.1896L271.935 33.5301L270.18 33.5464L270.116 33.8814L270.029 33.5409L269.615 33.3788L269.669 33.1518L269.152 32.6654L267.208 32.7789L267.122 32.606L266.201 32.2979L266.169 32.1844L266.427 32.0385L265.404 31.8817L265.216 32.233L264.877 32.2114L265.124 32.0331L264.769 31.925L264.947 31.8223L265.264 31.8115L263.606 31.5196L263.536 31.6818L262.965 32.0277H263.218L263.132 32.2168L263.229 32.4546L262.675 32.4492L262.589 32.5303V32.6708L261.851 32.433L261.485 32.5789L260.833 32.379L260.462 33.0275L260.268 32.9681L259.514 32.1628L259.87 32.1844L259.67 31.4386L259.455 31.2764L258.922 31.2872L258.281 30.963L257.974 31.3305L257.969 31.5953L256.402 31.5196L256.531 31.3467L254.878 31.3521L254.835 31.5412L254.787 31.1954L254.631 31.1575L254.308 31.2224L253.947 31.0224L253.597 31.2656L253.786 31.3143L252.407 31.8493L252.488 31.6007L254.238 30.5954L254.389 30.4009L254.771 30.2225L254.916 30.0063L254.776 29.8928L254.932 29.8226L254.825 29.4929L254.62 29.4551L254.555 29.1686L253.247 29.093L253.043 29.2281L252.649 29.2821L252.876 28.947L251.976 28.8768L252.359 28.6984L252.396 28.5633L251.804 28.4174L251.39 28.5309L250.83 29.147L250.889 29.2983L250.237 29.4551L250.442 29.628L249.527 29.7361L249.613 29.5361L249.317 29.6334L249.107 29.6064L248.606 29.7685L248.794 29.9091L246.937 30.4982L246.888 30.5846L246.775 30.6765L246.856 30.8008L246.587 30.7954L246.894 31.017L246.657 31.0386L246.894 31.2656L246.862 31.4169L245.063 31.6493L244.961 32.2492L245.386 32.4925L245.564 32.8329L244.094 32.3465L243.895 32.5303L244.196 32.687L243.604 32.8383L244.299 33.3572L244.25 33.4653L243.89 33.2707L243.362 33.2329L243.416 32.6546L243.281 32.2222L243.12 32.7357L242.748 32.9681L242.624 33.1896L242.98 33.6598L242.829 34.5894L243.066 34.6273L243.426 34.53L244.024 34.7408L244.137 35.0056L243.992 35.2704L244.353 35.5298L244.003 35.5082L243.863 35.2866L243.938 35.0272L243.583 34.6705L243.103 34.8326L243.168 35.3191L242.393 36.2757L241.504 36.2432L241.354 36.0973L241.876 36.1892L242.576 35.4704L242.721 34.9353L242.479 34.6435L242.543 33.5788L242.29 33.1842L242.522 32.3141L241.542 32.1682L240.621 33.5572L240.794 33.6004L240.632 34.2922L240.998 34.4381L241.133 34.7191L241.321 34.8218L241.127 35.1731L238.096 33.9301L238.182 34.2165L238.608 34.4705L238.748 34.757L238.651 34.9515L238.279 35.1569V34.9515L238.091 34.7948L237.617 35.0813L237.095 35.0975L236.804 35.3461L236.389 35.3245L236.61 34.8813L236.19 35.0326L236.131 35.2326L235.996 35.1407L234.656 35.746L234.586 36.1135L234.064 36.2054L233.816 35.9514L233.805 35.7298L234.295 35.6055L234.107 35.2758L233.353 35.1299L233.498 35.5028L233.38 35.8974L233.595 36.3243L233.498 36.5945H233.364L233.272 36.4919L232.96 36.4324L232.195 36.9404L232.341 37.5133L231.651 37.4269L231.301 37.1999L231.113 37.3998L231.205 37.5998L231.506 37.7079L231.533 37.9187L231.301 37.9673L230.779 37.7187L230.548 37.2701L230.58 36.8215L229.745 36.0973L231.673 36.6756L232.567 36.2054L232.54 35.7947L229.848 34.6435L230.074 34.5516L229.869 34.4651L229.465 34.5138L229.444 34.4976L229.078 34.503L228.879 34.3354L229.035 34.3462L229.449 34.1679L229.288 33.9949L228.895 33.8328L228.582 34.0598L228.62 33.8598L228.491 33.6653L228.119 34.1463L228.125 33.849L227.635 34.3138L227.689 34.0922L227.888 33.8166L227.85 33.6815L227.683 33.8436L227.468 33.822L227.414 33.9571L227.134 34.0976L227.032 34.4381L226.919 34.2165L227.145 33.8922L226.784 33.9895L226.8 34.2219L226.714 34.2976L226.483 34.3084L226.655 34.4813L226.51 34.4651L226.348 34.357L226.246 34.4273L226.316 34.6543L226.213 34.584L226.041 34.5732L226.02 34.3733L225.804 34.4003L225.718 34.503L225.691 34.6651L225.594 34.7624L225.277 34.8164L225.121 35.0596L225.314 35.038L225.357 35.1623L225.33 35.2542L225.174 35.2812L225.04 35.1948L224.873 35.292L224.943 35.0002L224.06 35.7839L224.162 35.7893L225.056 35.465L225.029 35.6541L224.943 35.7136L224.819 35.6487L224.157 36.6108L224.108 36.8702L223.866 36.9242L223.823 37.4809L223.419 37.5998L223.591 37.8106L223.225 37.9943L222.886 38.4862L222.719 38.3402L222.682 38.5348L222.218 38.7888L222.38 38.9239L222.116 38.9347L221.825 39.2374L221.712 39.2752L221.572 39.432L221.691 39.6049L221.599 40.2426L221.755 40.2967L221.971 40.1994L222.025 40.3075L221.869 40.4588L221.745 40.4264L221.642 40.5345L221.621 40.7399L221.955 40.7237L221.75 40.9777L222.073 41.2587L222.428 41.356L222.999 40.8588L223.209 40.7993L223.285 40.5453L224.033 42.6477L224.275 42.6369L224.485 42.3126L224.738 42.2802L224.916 42.118L225.024 42.1667L225.196 41.8316L225.088 41.8532L225.131 41.1128L225.761 40.3075L225.47 39.9508L225.255 39.8913L225.217 39.5022L225.772 38.4429L226.531 37.8268L226.499 37.4917L226.617 37.2053L226.816 37.0161L227.306 36.9729L227.554 37.081L227.662 37.3458L226.434 38.7023L226.45 39.9022L227.258 40.2048L228.486 39.8859L228.631 39.6698L228.486 39.8859L228.615 39.8319L228.809 40.0535L229.078 40.1129L227.269 40.5561L227.08 40.7615L227.145 40.9831L227.328 41.0966L227.393 41.2317L227.387 41.2371L227.36 41.583L227.113 41.7235L226.838 41.3668L226.542 41.5289L226.375 42.1451L226.38 42.1613L226.364 42.6369L226.413 42.6909L226.31 42.8855L225.955 42.9125L225.939 42.9936L225.772 43.0963L225.627 42.8855L224.394 43.3989L224.367 43.3557L224.184 43.2476L224.211 43.0476L223.597 43.3719L223.101 43.0638L222.961 42.799L223.338 42.8206L223.231 42.6045L223.091 42.5882L223.177 42.3667L223.371 42.2424L223.225 42.0802L223.247 41.5398L222.843 41.7992L222.859 41.9559L222.682 41.8586L222.525 42.1126L222.821 43.426L222.692 43.5665L222.235 43.5827L222.224 43.6584L221.842 43.7124L221.712 43.9556L221.567 43.9718L221.427 44.0583L221.045 44.6744L220.722 44.8203L220.022 45.6256L219.639 45.4851L219.462 45.6256L219.505 45.9931L219.241 45.9823L219.058 45.885L218.773 45.9391L218.584 46.1066L218.622 46.3228L219.295 46.539L219.715 47.2524L219.526 48.3009L217.61 48.1712L217.357 48.355L217.319 50.9113L217.96 50.9221L218.331 51.3167L218.401 51.2032L219.241 51.0356L220.038 50.1925L220.043 49.6845L220.91 48.9549L221.039 48.6576L221.023 48.5711L221.276 48.2198L221.836 48.3441L222.741 47.7929L224.846 49.7439L224.873 50.3979L225.201 49.8953L225.061 49.625L225.357 49.4683L225.589 49.4791L223.85 47.7658L223.855 47.4146L223.99 47.2146L224.184 47.1822L224.291 47.4308L224.528 47.5389L224.797 48.0199L225.826 48.69L225.885 48.5225L225.826 48.69L225.901 49.4197L226.106 49.7115L226.117 49.7169L226.278 50.0142L226.773 50.1979L226.445 50.2357L226.666 50.7654L226.951 50.9113L226.897 50.56L227.113 50.5438L226.973 50.4087L227.08 50.3384L227.301 50.3006L227.199 50.0196L226.946 50.0358L227.048 49.8466L226.8 49.4629L226.956 49.3602L227.199 49.3926L227.258 49.1278L227.446 49.1927L227.678 49.0575L228.066 49.2575L228.351 49.0467L228.766 48.9927L228.534 48.7873L228.351 48.2631L228.658 47.8793V47.6956L228.97 47.2146V47.1984L229.379 46.5714L229.719 46.5066L229.751 46.7336L230.252 46.8038L229.842 47.0741L230.149 47.2254L230.165 47.4956L231.118 47.193L230.806 47.1065L230.558 46.8254L231.899 46.2904L231.517 46.5552L231.635 46.7498L231.205 47.193L232.578 48.2252L232.696 48.5819L232.626 48.7008L231.517 48.9603L230.418 48.5711L228.814 48.9765L228.658 49.2467L228.012 49.3224L227.947 49.5818L228.076 49.6791L228.114 50.3709L228.469 50.6843L228.626 50.733L228.814 50.9492L229.46 50.7222L229.88 50.9924L230.198 50.9221L230.483 50.7059L230.72 50.7654L230.957 50.6897L230.623 52.1003L230.785 52.176H230.779L230.758 52.3814L230.779 52.176L230.623 52.1057L230.295 52.9651L227.57 52.7651L227.56 52.7543L226.682 52.376L225.998 52.7867L226.041 53.2407L225.002 53.0353L224.501 52.5976L223.591 52.4084L223.107 52.0355L223.349 51.7869L223.414 51.014L223.371 50.8897L220.474 51.0789L219.408 51.7328L218.25 51.4572L217.917 52.176L217.454 52.4408L217.055 53.0786V53.6082L214.837 57.0618L215.074 58.0076L214.853 59.2776L214.982 59.8343L214.945 60.0451L214.977 60.2072L217.61 63.0014L219.171 62.8014L219.397 62.8933L220.986 62.2015L220.991 62.2069L221.449 62.3312L221.901 62.9744L222.665 62.8285L222.795 63.0176L223.031 63.0717L223.118 63.4122L223.058 63.7202L223.064 63.731L222.988 64.1904L222.935 64.2661L223.053 64.439L222.762 64.812L224.114 67.3899L224.065 67.7575L224.254 68.4871L223.613 70.6435L225.546 76.9291L225.837 77.1615L227.893 76.6913L229.697 74.6375L229.859 73.8863L229.735 73.7512L230.602 73.0594L230.478 71.4056L232.287 69.5788L231.711 66.5306L235.555 60.1748L235.356 60.0613L233.256 60.4829L233.1 60.2883L233.057 60.3478L233.1 60.2883L232.933 60.2126L233.111 60.0505L229.783 53.365L230.295 54.2622L230.483 53.7596L233.148 59.7641L235.646 58.8291L235.943 58.4724L236.788 58.2021L236.906 57.9265L237.246 57.8562L237.445 57.532L237.644 57.4131L237.752 56.9375L238.258 56.3213L238.236 56.1322L237.978 55.7701L237.461 55.5647L237.208 54.7594L236.836 55.2404L235.883 55.6836L235.819 55.6674L235.69 55.4458L235.657 54.8999L235.453 55.2458L235.431 55.2512L234.629 53.5055L234.656 53.4461L235.221 53.2839L235.716 54.1433L236.793 54.6351L237.294 54.4676L237.531 54.9215L240.498 55.1053L240.702 55.5323L241.311 55.9862L241.65 55.9971L241.219 56.1754L241.881 56.7699L242.301 56.2132L243.771 61.3098L244.353 60.7531L244.832 58.4994L246.592 56.8564L246.689 56.4889L247.971 55.8673L248.832 57.5698L248.784 58.1373L248.913 58.3264L249.22 58.2778L249.484 57.9157L249.645 58.0508L250.916 62.9257L251.82 63.5743L251.605 62.3961L250.297 60.6936L250.507 59.4074L250.77 59.3155L251.363 59.7262L251.449 60.0397L251.643 60.0721L251.659 60.2613L251.906 60.2829L252.073 60.4504L251.976 60.7477L252.133 60.8882L252.574 60.3099L253.193 60.0289L253.441 59.5533L253.366 58.7372L252.348 56.9753L252.962 56.2349L253.506 56.1754L253.656 56.624L253.742 56.4727L254.798 55.7484L255.648 55.6403L256.709 54.5973V54.1541L256.93 54.0352L257.527 52.9218L257.102 52.7435L257.431 52.5543L256.962 52.1436L257.42 52.1868L256.898 51.2194L256.618 51.0086L256.914 50.4844L257.635 50.1006L257.452 49.879L257.145 49.7439L256.725 50.0628L256.531 49.7872L256.208 49.6683L256.203 49.2305L257.495 48.5441L257.237 49.3062L257.457 49.2953L258.039 48.917L258.19 48.89L258.55 49.0792L258.362 49.4629L258.416 49.6737L258.572 49.7601L258.814 49.7007L258.89 49.7493L258.987 49.9331L258.9 51.0789L259.81 50.6897L259.94 50.533L259.53 49.4359L259.25 49.1494L259.337 48.8306L259.886 48.4414L259.999 48.0091L260.43 47.5497L260.693 47.3821L261.059 47.6037L263.1 45.1987L263.682 42.8098L263.127 42.264L262.858 42.2802L262.664 42.545L262.486 42.5666L262.465 42.2153L262.271 42.4747L262.233 42.1126H261.872L261.889 41.8478L264.419 39.5725L266.578 39.4049L267.036 39.5725L266.874 39.8103L268.08 39.5671L267.951 39.459L267.93 39.1617L268.796 38.1943L269.319 38.124L269.529 38.2159L269.76 38.1078L269.604 38.4429L269.782 38.5726L269.696 38.724L270.605 38.2321L270.67 37.8808L271.214 37.6484L271.208 37.7349L268.942 40.221L268.646 40.2967L268.247 41.5506L268.603 43.7178L269.098 43.1773L269.168 42.8152L269.383 42.6477L269.62 42.5882L269.593 42.291L269.9 41.9559L270.282 41.8694L270.229 41.5181L270.455 41.0804L270.697 41.0587L270.546 40.8263L270.6 40.2372L270.395 40.2589L270.358 39.8913L270.864 39.1131L271.144 39.0915L271.268 39.1509L271.585 38.7996L271.65 39.1077L271.946 38.9077L272.743 38.8158L272.98 39.0374L273.114 38.8212L275.279 37.5241L275.914 37.5512L275.903 37.2593L275.214 36.3513L274.945 36.2973L275.263 36.1892L275.435 36.3567L275.801 36.3189L276.226 36.0649L276.318 35.8757L276.259 35.665L276.28 35.492L276.399 35.3731L276.571 35.3569L276.528 35.5461L276.641 35.7839L277.476 35.9514L277.702 36.2487L278.192 36.4594L278.563 36.427L278.423 36.2378L278.579 36.2757L278.563 35.746L278.644 35.7298Z" fill="#878686"/>
<path d="M242.172 31.9412L241.833 31.7953L241.698 32.0817L242.172 31.9412Z" fill="#676464"/>
<path d="M244.622 32.0331L244.379 32.152L244.622 32.0331Z" fill="#676464"/>
<path d="M196.272 56.0835L196.165 56.1862L196.385 56.5537L196.272 56.0835Z" fill="#676464"/>
<path d="M201.172 61.3908L201.398 61.3584L201.382 61.153L201.161 61.2287L201.172 61.3908Z" fill="#676464"/>
<path d="M253.102 65.0335L252.935 65.1204L253.102 65.0335Z" fill="#676464"/>
<path d="M257.872 66.9792L257.974 66.8711L256.72 67.0494L257.231 67.1467L257.872 66.9792Z" fill="#676464"/>
<path d="M256.004 66.8819L255.718 66.9305L255.568 67.1197L256.025 67.1954L256.467 67.044L256.004 66.8819Z" fill="#676464"/>
<path d="M258.351 67.3521L258.427 67.2602L259.121 66.8819L258.653 66.9035L258.109 67.2116L257.958 67.6169L258.351 67.3521Z" fill="#676464"/>
<path d="M259.353 65.0552L260.182 65.2713L259.972 64.92L259.353 65.0552Z" fill="#676464"/>
<path d="M257.048 67.5575L256.467 67.3899L256.747 67.5413L257.048 67.5575Z" fill="#676464"/>
<path d="M258.712 65.0876L259.094 65.1957L258.712 65.0876Z" fill="#676464"/>
<path d="M256.424 64.8714L256.747 66.001L256.908 65.6551L256.871 65.0065L257.075 65.1524L257.231 65.5037L257.522 65.5416L257.371 64.5687L257.845 64.1742L257.204 64.3958L256.811 64.0553L258.405 63.4013L258.071 63.5527L257.28 63.4716L256.898 63.6554L256.424 64.8714Z" fill="#676464"/>
<path d="M259.401 63.4122L259.186 63.2824L259.353 64.0499L259.59 63.504L259.401 63.4122Z" fill="#676464"/>
<path d="M249.618 63.5635L249.812 63.8391L249.618 63.5635Z" fill="#676464"/>
<path d="M250.07 64.4498L250.222 64.6452L250.07 64.4498Z" fill="#676464"/>
<path d="M255.013 67.017L255.385 67.0224L255.067 66.8062L254.518 66.7198L254.835 66.4766L252.413 66.2117L252.267 66.4279L252.499 66.4766L252.666 66.6711L255.013 67.017Z" fill="#676464"/>
<path d="M253.274 63.7743L254.006 65.0768L254.259 65.2119L254.674 65.1525L255.078 65.3524L255.53 65.2605L255.955 63.9256L256.434 63.6121L256.031 62.4826L256.564 62.0934L256.348 61.8881L256.068 61.8124L255.783 61.5476L255.293 62.2502L255.142 62.3312L254.916 62.2934L254.642 62.7906L254.184 62.9528L253.979 63.4068L253.479 63.2825L253.274 63.7743Z" fill="#676464"/>
<path d="M252.375 65.5686L252.423 65.2011L252.553 65.1146L252.563 64.8984L252.305 64.6174L252.267 64.7741L252.386 64.9417L252.192 64.8822L249.085 62.1042L251.933 66.0874L252.267 66.0928L252.375 65.5686Z" fill="#676464"/>
<path d="M224.501 50.3384L224.13 50.3493L223.877 50.4952L224.539 50.9221L224.749 50.3547L224.501 50.3384Z" fill="#676464"/>
<path d="M222.531 49.2791L222.773 50.0574L222.983 49.9007L223.031 49.3332L222.751 49.2089L222.531 49.2791Z" fill="#676464"/>
<path d="M188.81 45.1608C188.81 47.1767 187.265 48.8468 185.359 48.8954C183.458 48.944 181.918 47.3551 181.918 45.3446C181.918 43.3341 183.458 41.6641 185.359 41.61C187.265 41.556 188.81 43.1449 188.81 45.1608Z" fill="#A92D56"/>
<path d="M194.178 60.1262C194.178 61.0557 193.462 61.8286 192.579 61.8448C191.696 61.861 190.98 61.1206 190.98 60.191C190.98 59.2614 191.696 58.494 192.579 58.4724C193.462 58.4507 194.178 59.1912 194.178 60.1262Z" fill="#9BD2A5"/>
<path d="M233.148 59.0074C233.148 62.3853 230.505 65.1741 227.258 65.2335C224.017 65.293 221.395 62.6123 221.395 59.2506C221.395 55.889 224.017 53.1002 227.258 53.0245C230.505 52.9543 233.148 55.6295 233.148 59.0074Z" fill="#A92D56"/>
<path d="M244.708 36.1946C244.708 37.6376 243.572 38.8428 242.177 38.8807C240.783 38.9185 239.652 37.7835 239.652 36.3459C239.652 34.9029 240.783 33.7031 242.177 33.6598C243.572 33.6166 244.708 34.7516 244.708 36.1946Z" fill="#A92D56"/>
<path d="M250.883 51.3599C250.883 53.0137 249.581 54.3865 247.976 54.4189C246.372 54.4567 245.074 53.1434 245.074 51.495C245.074 49.8466 246.372 48.4738 247.976 48.436C249.581 48.3928 250.883 49.7061 250.883 51.3599Z" fill="#A92D56"/>
<path d="M262.96 33.9949C262.96 35.4055 261.84 36.5891 260.462 36.627C259.083 36.6702 257.969 35.5569 257.969 34.1463C257.969 32.7357 259.083 31.5575 260.462 31.5142C261.84 31.471 262.96 32.5789 262.96 33.9949Z" fill="#A92D56"/>
<path d="M20.6858 247.433V207.991" stroke="#263238" stroke-miterlimit="10"/>
<path d="M53.6904 249.536V211.141" stroke="#263238" stroke-miterlimit="10"/>
<path d="M91.9391 252.692V213.249" stroke="#263238" stroke-miterlimit="10"/>
<path d="M0.0323029 340.636L329.276 379.138" stroke="#263238" stroke-miterlimit="10"/>
<g opacity="0.23">
<g opacity="0.23">
<path opacity="0.23" d="M252.59 387.699C265.097 387.699 275.236 384.541 275.236 380.646C275.236 376.751 265.097 373.593 252.59 373.593C240.083 373.593 229.945 376.751 229.945 380.646C229.945 384.541 240.083 387.699 252.59 387.699Z" fill="#A92D56"/>
</g>
</g>
<path d="M234.349 343.257C231.797 347.391 230.246 352.758 230.246 358.628C230.246 371.707 237.913 382.31 247.368 382.31C256.822 382.31 264.489 371.707 264.489 358.628C264.489 352.758 262.944 347.397 260.386 343.257H234.349Z" fill="white" stroke="#263238" stroke-miterlimit="10" stroke-linecap="round" stroke-linejoin="round"/>
<path d="M260.623 343.868C260.742 345.981 254.938 347.716 247.653 347.743C240.368 347.77 234.365 346.078 234.247 343.959C234.128 341.846 239.932 340.111 247.217 340.084C254.496 340.057 260.5 341.749 260.623 343.868Z" fill="white" stroke="#263238" stroke-miterlimit="10" stroke-linecap="round" stroke-linejoin="round"/>
<path d="M259.573 345.419C257.393 344.127 252.8 343.241 247.524 343.257C242.145 343.278 237.574 344.23 235.603 345.575C237.784 346.867 242.377 347.753 247.653 347.737C253.032 347.721 257.598 346.77 259.573 345.419Z" fill="#263238" stroke="#263238" stroke-miterlimit="10" stroke-linecap="round" stroke-linejoin="round"/>
<path opacity="0.62" d="M215.601 231.052C215.601 231.052 217.19 234.068 215.779 236.905C214.363 239.743 212.597 242.58 213.658 244.001C214.718 245.423 217.9 247.195 217.545 250.211C217.19 253.227 212.947 259.259 215.601 262.631C218.25 266.004 222.671 265.825 222.848 269.549C223.026 273.273 218.606 276.288 219.844 279.661C221.082 283.033 228.329 283.741 228.329 286.049C228.329 288.357 225.503 290.838 227.802 293.324C230.101 295.81 241.214 302.29 242.807 299.626C244.396 296.966 247.599 289.6 245.494 279.147C245.139 277.391 242.651 277.002 242.296 274.516C241.941 272.03 243.001 267.598 241.235 265.112C239.469 262.626 233.81 261.739 233.461 259.788C233.105 257.837 235.582 253.049 233.105 250.033C230.628 247.017 224.797 245.596 224.797 243.645C224.797 241.694 226.563 239.208 224.092 236.548C221.61 233.889 215.601 231.052 215.601 231.052Z" fill="#A92D56"/>
<path d="M224.065 251.957C227.743 263.112 234.193 278.218 236.809 285.52C239.991 294.388 242.759 300.815 244.17 309.683C244.826 313.807 245.343 328.854 245.709 343.776" stroke="#263238" stroke-miterlimit="10" stroke-linecap="round" stroke-linejoin="round"/>
<path d="M216.484 232.117C216.484 232.117 219.489 234.603 222.138 245.423C222.31 246.12 222.504 246.86 222.725 247.628" stroke="#263238" stroke-miterlimit="10" stroke-linecap="round" stroke-linejoin="round"/>
<path opacity="0.62" d="M270.848 251.265C270.848 251.265 269.577 253.681 270.708 255.951C271.838 258.221 273.254 260.496 272.404 261.631C271.553 262.766 269.006 264.188 269.292 266.598C269.577 269.014 272.969 273.84 270.848 276.537C268.726 279.234 265.189 279.093 265.049 282.077C264.909 285.06 268.441 287.471 267.456 290.167C266.465 292.864 260.666 293.432 260.666 295.28C260.666 297.129 262.928 299.112 261.092 301.101C259.25 303.09 250.356 308.273 249.085 306.143C247.815 304.014 245.252 298.118 246.937 289.757C247.222 288.352 249.214 288.038 249.494 286.049C249.78 284.06 248.929 280.509 250.345 278.526C251.761 276.537 256.284 275.829 256.569 274.267C256.854 272.705 254.873 268.873 256.854 266.457C258.836 264.042 263.504 262.907 263.504 261.345C263.504 259.783 262.088 257.794 264.069 255.664C266.04 253.535 270.848 251.265 270.848 251.265Z" fill="#A92D56"/>
<path d="M264.075 267.998C261.129 276.921 255.972 289.016 253.877 294.853C251.33 301.955 249.118 307.089 247.987 314.191C247.422 317.742 246.985 331.399 246.689 344.176" stroke="#263238" stroke-miterlimit="10" stroke-linecap="round" stroke-linejoin="round"/>
<path d="M270.142 252.119C270.142 252.119 267.736 254.108 265.614 262.766C265.48 263.323 265.318 263.912 265.146 264.533" stroke="#263238" stroke-miterlimit="10" stroke-linecap="round" stroke-linejoin="round"/>
<path opacity="0.62" d="M222.208 291.47C222.208 291.47 223.274 293.486 222.326 295.383C221.379 297.28 220.199 299.177 220.91 300.128C221.621 301.079 223.748 302.263 223.511 304.279C223.274 306.295 220.436 310.327 222.213 312.58C223.984 314.834 226.94 314.715 227.059 317.207C227.177 319.698 224.221 321.714 225.051 323.968C225.88 326.222 230.725 326.697 230.725 328.237C230.725 329.778 228.836 331.442 230.37 333.102C231.905 334.761 239.34 339.095 240.401 337.317C241.467 335.539 243.604 330.61 242.194 323.627C241.957 322.454 240.293 322.19 240.056 320.53C239.819 318.871 240.53 315.904 239.345 314.245C238.166 312.586 234.381 311.991 234.144 310.689C233.907 309.386 235.56 306.181 233.907 304.165C232.254 302.149 228.351 301.198 228.351 299.896C228.351 298.593 229.53 296.929 227.877 295.151C226.23 293.367 222.208 291.47 222.208 291.47Z" fill="#A92D56"/>
<path d="M227.872 305.446C230.332 312.905 234.645 323.006 236.395 327.886C238.522 333.815 240.374 338.112 241.316 344.041" stroke="#263238" stroke-miterlimit="10" stroke-linecap="round" stroke-linejoin="round"/>
<path d="M222.8 292.178C222.8 292.178 224.808 293.837 226.58 301.074C226.693 301.539 226.827 302.036 226.973 302.549" stroke="#263238" stroke-miterlimit="10" stroke-linecap="round" stroke-linejoin="round"/>
<path opacity="0.62" d="M283.08 288.514C283.08 288.514 281.584 290.232 282.074 292.297C282.564 294.361 283.28 296.48 282.37 297.242C281.465 298.004 279.123 298.669 278.892 300.685C278.66 302.701 280.501 307.278 278.262 309.067C276.022 310.856 273.174 310.062 272.49 312.456C271.806 314.856 274.224 317.493 272.905 319.498C271.585 321.503 266.761 320.849 266.411 322.352C266.061 323.854 267.52 325.903 265.647 327.167C263.773 328.432 255.552 330.94 254.922 328.967C254.292 326.989 253.333 321.703 256.295 315.223C256.795 314.137 258.47 314.261 259.084 312.699C259.692 311.137 259.676 308.089 261.205 306.743C262.734 305.398 266.551 305.689 267.079 304.473C267.607 303.257 266.724 299.761 268.796 298.177C270.869 296.594 274.88 296.567 275.177 295.296C275.473 294.026 274.703 292.14 276.716 290.784C278.735 289.438 283.08 288.514 283.08 288.514Z" fill="#A92D56"/>
<path d="M274.385 300.82C270.288 307.516 263.789 316.358 260.973 320.703C257.549 325.989 253.446 329.367 252.499 335.301C252.208 337.117 251.96 340.446 251.756 344.186" stroke="#263238" stroke-miterlimit="10" stroke-linecap="round" stroke-linejoin="round"/>
<path d="M282.343 289.07C282.343 289.07 280.006 290.227 276.636 296.864C276.42 297.291 276.178 297.739 275.92 298.21" stroke="#263238" stroke-miterlimit="10" stroke-linecap="round" stroke-linejoin="round"/>
<path opacity="0.23" d="M103.849 397.995C123.296 397.995 139.061 393.291 139.061 387.488C139.061 381.685 123.296 376.982 103.849 376.982C84.4017 376.982 68.6367 381.685 68.6367 387.488C68.6367 393.291 84.4017 397.995 103.849 397.995Z" fill="#644B9B"/>
<path d="M66.483 261.539C66.483 261.539 67.9421 274.489 68.5613 281.174C69.1859 287.86 70.8495 306.862 70.6396 309.159C70.4296 311.456 68.3513 335.328 68.3513 344.522C68.3513 353.709 69.6004 366.659 69.6004 366.659C69.6004 366.659 67.5222 370.21 67.9367 372.09C68.3513 373.971 68.7713 375.852 68.7713 376.895C68.7713 377.938 69.1859 379.403 69.1859 379.403C69.1859 379.403 72.3086 381.489 74.1769 381.7C76.0506 381.911 79.7926 380.657 79.7926 380.03C79.7926 379.403 81.4562 373.139 81.4562 370.842C81.4562 368.545 81.4562 369.377 82.0808 366.248C82.7054 363.113 89.3655 319.817 90.1947 315.85C91.0292 311.883 92.2729 282.017 92.2729 282.017L93.7266 284.73C93.7266 284.73 97.264 316.688 97.054 320.239C96.844 323.789 95.5949 337.366 96.2195 343.63C96.844 349.894 98.0932 365.351 98.0932 367.021C98.0932 368.691 97.6786 372.452 97.6786 373.912C97.6786 375.371 96.4295 377.673 97.054 378.716C97.6786 379.759 98.3031 381.851 98.3031 381.851C98.3031 381.851 105.792 383.105 107.876 383.105C109.954 383.105 111.623 381.224 111.623 381.224C111.623 381.224 111.623 379.554 111.623 377.673C111.623 375.793 112.038 374.122 112.038 372.242C112.038 370.361 112.248 366.394 112.248 363.47C112.248 360.546 112.873 356.995 113.083 355.115C113.292 353.234 116.205 331.307 116.62 323.157C117.034 315.012 118.908 296.631 118.908 293.707C118.908 290.784 118.698 263.426 118.698 263.426L118.284 258.415C118.284 258.415 96.4348 261.339 86.0327 259.875C75.6306 258.415 67.0968 257.994 67.0968 257.994L66.483 261.539Z" stroke="#263238" stroke-miterlimit="10" stroke-linecap="round" stroke-linejoin="round"/>
<path d="M80.6163 376.706C80.6163 376.706 80.0456 377.279 78.8988 377.625C77.752 377.971 77.0628 378.198 76.1475 376.933C75.2322 375.668 73.3962 374.171 71.9048 374.863C70.4134 375.555 68.6959 376.587 68.3513 377.392C68.0067 378.198 68.2382 386.602 68.2382 388.212C68.2382 389.823 71.3341 390.515 74.43 390.628C77.5258 390.742 79.9325 389.018 79.9325 389.018C79.9325 389.018 82.5707 389.25 83.486 388.099C84.4013 386.948 83.9437 384.299 83.373 383.381C82.8023 382.462 82.3392 381.656 81.537 380.041C80.7294 378.435 80.6163 376.706 80.6163 376.706Z" fill="white" stroke="#263238" stroke-miterlimit="10" stroke-linecap="round" stroke-linejoin="round"/>
<path d="M83.4807 388.099C83.7822 387.72 83.9329 387.185 83.9814 386.602C82.4738 387.293 80.6917 386.856 80.0402 386.953C79.238 387.066 77.402 388.337 73.2778 388.104C70.8549 387.969 69.1858 387.396 68.2167 386.948C68.2275 387.51 68.2329 387.953 68.2329 388.218C68.2329 389.828 71.3287 390.52 74.4246 390.634C77.5205 390.747 79.9271 389.023 79.9271 389.023C79.9271 389.023 82.5654 389.25 83.4807 388.099Z" fill="#A92D56"/>
<path d="M79.4695 389.023L79.9272 383.499" stroke="#263238" stroke-miterlimit="10" stroke-linecap="round" stroke-linejoin="round"/>
<path d="M77.0951 377.792C76.7882 377.663 76.4813 377.403 76.1475 376.938C75.2322 375.674 73.3962 374.177 71.9048 374.868C70.6611 375.447 69.2666 376.263 68.6367 376.987C69.132 378.408 70.3326 380.921 72.707 381.084C74.6453 381.213 76.1475 379.511 77.0951 377.792Z" fill="#A92D56"/>
<path d="M111.801 379.338C111.801 379.338 110.084 379.797 109.163 379.224C108.248 378.652 106.869 375.198 103.773 375.544C100.678 375.89 99.2992 378.765 98.6154 379.111C97.9263 379.457 97.8132 379.57 97.5817 379.916C97.3502 380.262 97.2371 389.59 97.3502 390.509C97.4632 391.428 104 392.347 108.011 391.887C112.022 391.428 113.4 389.699 113.745 389.472C114.089 389.239 115.581 388.78 115.807 386.71C116.038 384.64 115.349 382.338 114.202 381.532C113.056 380.727 112.14 379.808 112.14 379.808L111.801 379.338Z" fill="white" stroke="#263238" stroke-miterlimit="10" stroke-linecap="round" stroke-linejoin="round"/>
<path d="M107.332 389.234C103.16 389.32 99.0569 388.45 97.3124 387.688C97.307 389.077 97.3178 390.201 97.3555 390.504C97.4686 391.423 104.005 392.341 108.016 391.882C112.027 391.423 113.406 389.693 113.75 389.466C114.095 389.234 115.586 388.774 115.812 386.704C115.871 386.191 115.871 385.661 115.818 385.148C115.651 385.494 115.457 385.872 115.236 386.245C114.552 387.391 112.835 389.12 107.332 389.234Z" fill="#A92D56"/>
<path d="M111.833 385.305L111.166 391.006" stroke="#263238" stroke-miterlimit="10" stroke-linecap="round" stroke-linejoin="round"/>
<path d="M104.118 382.327C106.18 382.564 108.404 380.932 109.615 379.408C109.454 379.365 109.297 379.305 109.157 379.219C108.242 378.646 106.864 375.193 103.768 375.538C100.672 375.884 99.2938 378.76 98.61 379.106C98.6154 379.106 101.141 381.986 104.118 382.327Z" fill="#A92D56"/>
<path d="M92.2837 282.007L87.2926 279.499" stroke="#514E4D" stroke-miterlimit="10" stroke-linecap="round" stroke-linejoin="round"/>
<path d="M102.847 164.159C102.847 164.159 104.096 162.073 104.511 164.786C104.926 167.499 103.886 170.423 102.433 171.472C100.974 172.515 100.354 171.472 100.354 170.429C100.354 169.386 102.847 164.159 102.847 164.159Z" fill="white" stroke="#263238" stroke-miterlimit="10" stroke-linecap="round" stroke-linejoin="round"/>
<path d="M78.5057 165.208C78.5057 165.208 76.2175 164.581 76.2175 167.089C76.2175 169.596 79.5449 173.147 81.004 172.309C82.4577 171.472 78.5057 165.208 78.5057 165.208Z" fill="white" stroke="#263238" stroke-miterlimit="10" stroke-linecap="round" stroke-linejoin="round"/>
<path d="M90.5715 140.768C90.5715 140.768 87.3195 146.194 83.9114 147.659C79.5395 149.54 76.0075 155.177 76.2121 159.771C76.4221 164.365 83.0768 179.406 84.116 179.822C85.1551 180.238 98.2654 179.195 98.68 178.568C99.0946 177.941 100.968 171.677 102.632 165.619C104.296 159.56 104.296 156.431 104.296 156.431C104.296 156.431 105.13 154.134 105.13 150.372C105.13 146.611 102.427 143.687 102.427 143.687L99.9291 146.821L100.764 139.72C100.764 139.72 98.0608 139.304 95.7726 140.763C93.4843 142.227 91.8207 144.314 91.8207 144.314L90.5715 140.768Z" fill="#263238" stroke="#263238" stroke-miterlimit="10" stroke-linecap="round" stroke-linejoin="round"/>
<path d="M163.596 146.416C163.284 145.481 162.358 145.481 161.583 143.465C160.807 141.444 158.643 141.909 158.024 141.6C157.405 141.287 157.405 140.979 157.711 140.044C158.024 139.109 158.794 136.001 157.399 136.001C156.005 136.001 154.922 139.266 154.61 140.044C154.298 140.822 151.821 144.087 151.821 144.087C151.821 144.087 150.583 144.4 149.808 144.4C149.032 144.4 148.106 145.957 147.95 146.729C147.853 147.216 148.602 148.794 149.178 149.907C149.544 151.269 150.114 152.631 150.114 152.631C150.114 152.631 150.89 153.718 153.21 153.41C155.531 153.096 159.865 156.209 160.484 155.739C161.103 155.274 162.498 152.475 163.117 150.923C163.752 149.372 163.909 147.351 163.596 146.416Z" fill="white" stroke="#263238" stroke-miterlimit="10" stroke-linecap="round" stroke-linejoin="round"/>
<path d="M63.4571 276.305C63.4571 276.305 66.273 280.618 66.4184 282.25C66.5692 283.887 66.5692 287.006 66.7145 288.049C66.8653 289.092 66.2676 289.832 65.53 289.832C64.7924 289.832 64.3455 289.087 64.3455 289.087C64.3455 289.087 64.4963 290.573 64.7924 291.616C65.0885 292.659 66.7199 293.551 66.5692 294.588C66.4184 295.632 64.7924 296.075 62.5688 296.075C60.3451 296.075 57.68 294.886 56.3501 291.762C55.0149 288.638 53.685 279.72 53.685 278.088C53.685 276.456 61.9765 275.116 63.4571 276.305Z" fill="white" stroke="#263238" stroke-miterlimit="10" stroke-linecap="round" stroke-linejoin="round"/>
<path d="M60.3505 281.807C60.3505 281.807 60.9428 283.147 59.7583 285.228C58.5738 287.308 57.9815 288.795 57.9815 289.243C57.9815 289.692 58.7245 291.027 59.3168 292.216C59.909 293.405 61.8365 293.259 61.9819 294.297C62.1327 295.34 61.6858 295.934 61.6858 295.934" stroke="#263238" stroke-miterlimit="10" stroke-linecap="round" stroke-linejoin="round"/>
<path d="M62.2134 288.162C62.2134 288.162 62.4234 290.13 63.0156 291.616C63.6079 293.102 66.7199 293.994 65.5354 295.632" stroke="#263238" stroke-miterlimit="10" stroke-linecap="round" stroke-linejoin="round"/>
<path d="M60.3505 288.795C60.3505 288.795 60.6467 290.73 61.0935 291.621C61.5404 292.513 64.5017 293.405 63.9094 295.783" stroke="#263238" stroke-miterlimit="10" stroke-linecap="round" stroke-linejoin="round"/>
<path d="M64.3509 289.092C64.3509 289.092 64.0548 286.714 63.9041 285.822C63.7533 284.93 63.7533 283.293 63.7533 283.293" stroke="#263238" stroke-miterlimit="10" stroke-linecap="round" stroke-linejoin="round"/>
<path d="M112.926 185.091C112.926 185.091 107.935 180.703 99.6115 179.033C91.2876 177.363 80.261 180.076 75.8944 183C71.5225 185.924 71.108 190.934 71.108 190.934L112.926 185.091Z" fill="white" stroke="#263238" stroke-miterlimit="10" stroke-linecap="round" stroke-linejoin="round"/>
<path d="M147.255 159.614C147.255 159.614 146.841 157.944 147.255 157.106C147.67 156.269 147.88 153.766 148.505 153.139C149.129 152.512 153.706 150.005 157.033 151.469C160.36 152.934 162.024 159.198 162.649 160.657C163.273 162.122 161.4 165.462 160.57 165.878C159.736 166.294 158.907 163.37 158.072 162.538C157.243 161.7 150.168 158.36 147.255 159.614Z" fill="white" stroke="#263238" stroke-miterlimit="10" stroke-linecap="round" stroke-linejoin="round"/>
<path d="M92.3268 184.675C91.4922 184.886 75.6791 186.972 68.6097 189.064C61.535 191.15 55.7094 193.868 55.4994 196.581C55.2895 199.295 49.5123 249.887 49.3077 252.816C49.0977 255.74 51.1814 272.657 52.2205 273.284C53.2596 273.91 58.0461 274.327 59.7098 273.7C61.3735 273.073 62.4126 271.819 62.4126 271.819L63.0372 257.826C63.0372 257.826 63.4518 262.631 64.2863 262.836C65.1208 263.047 78.2258 267.014 96.1226 265.55C114.014 264.09 121.509 261.372 122.962 260.329C124.421 259.286 124.211 256.151 124.211 256.151C124.211 256.151 124.421 253.854 124.421 251.557C124.421 249.26 117.718 203.051 117.718 203.051C117.718 203.051 145.183 195.533 147.266 193.025C149.345 190.517 159.332 163.159 159.332 161.068C159.332 158.982 154.756 155.847 151.428 155.636C148.101 155.425 139.987 171.926 138.113 173.18C136.24 174.433 118.348 181.535 111.688 182.789C105.017 184.048 92.3268 184.675 92.3268 184.675Z" fill="#A92D56"/>
<path d="M85.7366 198.835C85.7366 198.835 88.5579 209.936 96.7956 214.508" stroke="#263238" stroke-miterlimit="10" stroke-linecap="round" stroke-linejoin="round"/>
<path d="M97.9155 219.443C98.5346 219.767 99.1754 220.086 99.8268 220.389" stroke="#263238" stroke-miterlimit="10" stroke-linecap="round" stroke-linejoin="round"/>
<path d="M85.7366 210.374C85.7366 210.374 89.2524 214.173 94.8896 217.703" stroke="#263238" stroke-miterlimit="10" stroke-linecap="round" stroke-linejoin="round"/>
<path d="M118.79 211.52L117.713 203.056L107.44 206.856L111.408 208.488C109.475 210.196 106.939 212.617 108.506 212.336C109.911 212.082 112.517 210.769 114.423 209.731L118.79 211.52Z" fill="#263238" stroke="#263238" stroke-miterlimit="10" stroke-linecap="round" stroke-linejoin="round"/>
<path d="M61.1635 251.768C61.1635 248.006 62.9887 209.736 62.9887 209.736L62.3642 207.023L57.7446 199.646L60.1998 213.952C58.2453 213.341 54.3149 212.298 55.801 214.287C57.0662 215.979 59.1445 217.757 60.4528 218.805L59.053 247.104C58.9345 249.471 59.5106 251.816 60.7059 253.854L62.1381 256.302C61.6696 255.265 61.1635 253.713 61.1635 251.768Z" fill="#263238" stroke="#263238" stroke-miterlimit="10" stroke-linecap="round" stroke-linejoin="round"/>
<path d="M62.1488 256.313C62.6011 257.286 63.0372 257.826 63.0372 257.826L62.1488 256.313Z" fill="#263238" stroke="#263238" stroke-miterlimit="10" stroke-linecap="round" stroke-linejoin="round"/>
<path d="M123.377 255.108C91.5407 269.517 63.0372 257.821 63.0372 257.821C63.0372 257.821 63.4518 262.626 64.2863 262.831C65.1209 263.042 78.2258 267.009 96.1226 265.544C114.014 264.079 121.509 261.366 122.962 260.323C124.421 259.28 124.211 256.146 124.211 256.146C124.211 256.146 124.255 255.665 124.303 254.924L123.377 255.108Z" fill="white" stroke="#263238" stroke-miterlimit="10" stroke-linecap="round" stroke-linejoin="round"/>
<path d="M49.9323 271.192C49.9323 271.192 54.7187 273.278 58.6707 272.03C62.6226 270.776 63.6618 269.522 64.2863 269.733C64.9109 269.944 64.9109 274.954 64.2863 276.418C63.6618 277.877 62.208 278.926 57.8361 279.342C53.4642 279.758 51.176 277.672 50.7614 276.418C50.3468 275.159 49.9323 271.192 49.9323 271.192Z" fill="white" stroke="#263238" stroke-miterlimit="10" stroke-linecap="round" stroke-linejoin="round"/>
<g opacity="0.23">
<g opacity="0.23">
<path opacity="0.23" d="M32.7139 385.85C49.8089 385.85 63.6671 381.534 63.6671 376.209C63.6671 370.884 49.8089 366.567 32.7139 366.567C15.6188 366.567 1.7606 370.884 1.7606 376.209C1.7606 381.534 15.6188 385.85 32.7139 385.85Z" fill="#A92D56"/>
</g>
</g>
<path d="M37.608 157.36C37.608 157.36 40.1924 160.408 40.0362 161.63C39.8855 162.851 40.3378 164.829 40.9462 165.597C41.5546 166.359 43.2236 166.97 43.2236 168.342C43.2236 169.715 42.3137 170.937 42.3137 170.937C42.3137 170.937 42.9221 177.033 42.3137 178.563C41.7053 180.087 39.2771 180.087 37.9095 180.087C36.542 180.087 35.7828 179.935 35.3251 179.935C34.8675 179.935 32.1378 177.498 30.011 172.158C27.8843 166.824 30.3125 158.895 32.1378 157.825C33.963 156.75 37.608 157.36 37.608 157.36Z" fill="white" stroke="#263238" stroke-miterlimit="10" stroke-linecap="round" stroke-linejoin="round"/>
<path d="M36.542 166.662L42.7714 163.154" stroke="#263238" stroke-miterlimit="10" stroke-linecap="round" stroke-linejoin="round"/>
<path d="M40.0362 162.543C40.0362 162.543 43.3798 161.63 42.163 166.51" stroke="#263238" stroke-miterlimit="10" stroke-linecap="round" stroke-linejoin="round"/>
<path d="M30.9479 184.708L30.0057 196.052L17.9991 193.214V184.232C17.9991 184.237 26.4737 182.346 30.9479 184.708Z" fill="white" stroke="#263238" stroke-miterlimit="10" stroke-linecap="round" stroke-linejoin="round"/>
<path d="M29.7149 152.275C29.7149 152.275 26.436 153.215 22.9202 152.745C19.4043 152.275 11.6728 153.215 9.56218 158.387C7.45161 163.559 10.0306 168.267 9.79909 169.677C9.56218 171.088 5.81484 173.207 5.81484 175.32C5.81484 177.433 7.457 179.319 6.75168 180.962C6.04636 182.611 4.87801 184.021 5.81484 185.664C6.75168 187.313 10.499 184.486 10.9674 186.134C11.4359 187.783 14.9517 189.896 16.5885 189.896C18.2252 189.896 20.1043 186.367 21.0411 187.777C21.9779 189.188 23.8516 190.599 25.7253 190.366C27.599 190.128 28.525 185.788 32.52 187.545C36.4504 189.274 37.8234 185.626 37.6726 182.373C37.5326 179.308 33.9253 175.082 34.6252 172.731C35.3305 170.38 36.7358 168.732 36.2674 166.143C35.799 163.554 33.6884 162.614 34.8621 160.733C36.0359 158.852 37.6726 158.852 38.141 156.501C38.6095 154.15 37.6726 151.091 34.1568 150.621C30.6517 150.161 29.7149 152.275 29.7149 152.275Z" fill="white" stroke="#263238" stroke-miterlimit="10" stroke-linecap="round" stroke-linejoin="round"/>
<path d="M8.58236 272.397C8.58236 272.397 11.8774 291.302 10.2299 309.505C9.56765 316.807 5.9926 318.725 5.05038 328.41C4.10816 338.101 7.40324 357.72 5.7557 368.118C5.52957 369.539 3.87126 373.079 5.7557 374.971C7.64014 376.863 14.2303 375.679 16.1147 375.679C17.9992 375.679 22.4734 374.971 22.9418 373.787C23.4102 372.604 20.1151 371.426 17.9992 367.405C15.8778 363.389 14.2303 357.952 14.2303 352.515C14.2303 347.078 17.5254 331.718 20.1151 319.19C22.7049 306.662 24.1155 299.809 24.1155 292.718C24.1155 285.628 24.1155 271.684 24.1155 270.5C24.1155 269.317 17.7569 266.485 12.8143 267.425C7.87704 268.376 8.58236 272.397 8.58236 272.397Z" fill="white" stroke="#263238" stroke-miterlimit="10" stroke-linecap="round" stroke-linejoin="round"/>
<path d="M17.9991 367.41C17.6384 366.724 17.2992 365.983 16.9707 365.221C16.3623 366.524 16.1416 368.086 14.9409 368.356C12.8196 368.826 5.75562 368.118 5.75562 368.118C5.51872 369.534 3.87118 373.079 5.75562 374.971C7.64006 376.863 14.2302 375.679 16.1147 375.679C17.9991 375.679 22.4733 374.971 22.9417 373.787C23.4155 372.609 20.1204 371.426 17.9991 367.41Z" fill="#263238" stroke="#263238" stroke-miterlimit="10" stroke-linecap="round" stroke-linejoin="round"/>
<path d="M14.7527 357.893C14.4297 356.136 14.2358 354.331 14.2358 352.52C14.2358 347.083 17.5309 331.724 20.1207 319.196C22.7104 306.668 24.1211 299.815 24.1211 292.724C24.1211 285.633 24.1211 271.689 24.1211 270.506C24.1211 269.322 17.7624 266.49 12.8198 267.43C7.87719 268.376 8.58251 272.392 8.58251 272.392C8.58251 272.392 11.8776 291.297 10.23 309.5C9.5678 316.801 5.99275 318.72 5.05053 328.405C4.36675 335.442 5.91737 347.71 6.18658 357.887C8.23792 358.411 11.2207 358.741 14.7527 357.893Z" fill="#A92D56"/>
<path d="M5.51872 353.461C5.51872 353.461 9.0507 354.169 10.9351 354.169C12.8196 354.169 15.4093 353.223 15.4093 353.223L16.1147 359.368C16.1147 359.368 12.1143 360.552 9.5245 360.552C6.93474 360.552 5.99252 360.081 5.99252 360.081C5.99252 360.081 5.51872 355.352 5.51872 353.461Z" fill="white" stroke="#263238" stroke-miterlimit="10" stroke-linecap="round" stroke-linejoin="round"/>
<path d="M5.99252 254.908C5.99252 254.908 4.58188 264.361 5.99252 269.09C7.40316 273.819 11.172 280.434 12.1143 282.325C13.0565 284.217 14.2356 290.124 14.2356 291.308C14.2356 292.491 15.1778 306.435 13.7672 313.526C12.3565 320.617 10.709 324.633 10.709 331.491C10.709 338.344 14.0041 363.929 14.0041 368.421C14.0041 372.912 12.3565 378.581 13.5357 379.765C14.7148 380.948 34.9644 378.538 36.8435 377.83C38.7279 377.122 38.7279 374.993 38.0226 374.047C37.3173 373.101 28.8373 370.312 27.4267 369.129C26.016 367.945 25.0738 364.167 24.8369 362.513C24.6 360.86 25.3053 335.512 26.2476 329.837C27.1898 324.162 30.9587 313.056 33.0746 306.911C35.1959 300.766 38.9594 279.023 38.9594 271.224C38.9594 263.426 38.2541 257.281 38.2541 257.281C38.2541 257.281 16.3516 258.923 5.99252 254.908Z" fill="white" stroke="#263238" stroke-miterlimit="10" stroke-linecap="round" stroke-linejoin="round"/>
<path d="M36.8381 377.819C38.7225 377.111 38.7225 374.982 38.0172 374.036C37.3119 373.09 28.8319 370.301 27.4213 369.118C27.2167 368.945 27.0229 368.718 26.8398 368.453L26.2422 372.193C26.2422 372.193 24.1208 374.085 21.0626 374.085C18.7044 374.085 15.2424 372.55 13.7672 371.836C13.358 375.409 12.5288 378.992 13.5249 379.754C18.306 383.408 34.9537 378.527 36.8381 377.819Z" fill="#263238" stroke="#263238" stroke-miterlimit="10" stroke-linecap="round" stroke-linejoin="round"/>
<path d="M24.7885 361.622C24.7185 357.104 25.3807 335.01 26.2422 329.832C27.1844 324.157 30.9533 313.051 33.0692 306.906C35.1906 300.761 38.9541 279.018 38.9541 271.219C38.9541 263.42 38.2487 257.275 38.2487 257.275C38.2487 257.275 16.3516 258.929 5.99252 254.913C5.99252 254.913 4.58188 264.366 5.99252 269.095C7.40316 273.824 11.172 280.439 12.1143 282.331C13.0565 284.223 14.2356 290.13 14.2356 291.313C14.2356 292.497 15.1778 306.441 13.7672 313.532C12.3565 320.622 10.709 324.638 10.709 331.497C10.709 336.35 12.3619 352.148 13.3257 360.73C15.6462 361.33 18.9467 362.043 21.5418 362.043C22.7156 362.027 23.8085 361.865 24.7885 361.622Z" fill="#A92D56"/>
<path d="M13.288 363.686C13.288 363.686 15.4093 364.632 18.2306 364.632C21.0519 364.632 25.2946 365.34 25.0577 363.924C24.8208 362.508 25.2946 357.779 25.2946 357.779C25.2946 357.779 20.115 358.487 17.0515 358.017C13.9933 357.547 12.1089 357.309 12.1089 357.309C12.1089 357.309 12.5827 362.265 13.288 363.686Z" fill="white" stroke="#263238" stroke-miterlimit="10" stroke-linecap="round" stroke-linejoin="round"/>
<path d="M32.5954 198.657C32.5954 198.657 29.3003 193.928 22.9417 192.274C16.5831 190.62 10.4613 200.073 8.81379 205.272C7.16625 210.471 6.92935 224.415 4.57649 231.506C2.22363 238.597 0.576096 252.778 1.51832 254.432C2.46054 256.086 22.7102 261.285 29.7741 261.285C36.8381 261.285 44.3705 255.61 44.6074 252.778C44.8443 249.941 43.4282 231.036 42.2545 220.87C41.0754 210.709 32.5954 198.657 32.5954 198.657Z" fill="white" stroke="#263238" stroke-miterlimit="10" stroke-linecap="round" stroke-linejoin="round"/>
<path d="M29.4565 277.234C29.4565 277.234 29.3757 280.515 29.4565 282.439C29.5372 284.363 29.1388 286.363 28.7404 287.644C28.342 288.924 27.3836 289.805 27.3028 288.924C27.2221 288.043 27.6205 286.444 27.6205 285.719C27.6205 285.001 27.3836 281.715 27.3836 281.715C27.3836 281.715 27.1467 283.396 26.6675 285.238C26.1883 287.081 24.8315 289 24.1962 289.162C23.5555 289.324 23.1571 288.762 23.4801 287.881C23.7978 287 24.5946 284.439 24.6754 283.877C24.7561 283.314 24.7561 281.553 24.7561 281.553C24.7561 281.553 23.2432 285.957 22.6025 286.914C21.9672 287.876 21.8864 288.357 21.2457 288.433C20.6104 288.514 20.6857 287.152 21.0842 286.109C21.4826 285.066 22.1233 281.704 22.1233 281.385C22.1233 281.066 21.4072 282.828 20.5296 283.785C19.652 284.747 19.0167 285.547 18.6129 285.384C18.2144 285.222 18.7744 283.704 19.0921 282.985C19.4097 282.266 19.8889 280.823 19.8889 280.342C19.8889 279.861 19.8889 278.261 19.8889 278.261C19.8889 278.261 19.1728 276.661 22.5217 276.099C25.8707 275.553 28.7404 274.91 29.4565 277.234Z" fill="white" stroke="#263238" stroke-miterlimit="10" stroke-linecap="round" stroke-linejoin="round"/>
<path d="M17.773 274.997C17.773 274.997 17.0192 277.126 18.7744 278.304C20.5296 279.488 26.8021 280.434 28.805 278.542C30.8133 276.651 30.8133 274.759 30.8133 274.759L17.773 274.997Z" fill="white" stroke="#263238" stroke-miterlimit="10" stroke-linecap="round" stroke-linejoin="round"/>
<path d="M19.6466 201.489C19.6466 201.489 14.4671 209.996 14.4671 215.433C14.4671 220.87 11.6404 258.924 11.4089 263.647C11.172 268.376 11.6458 272.154 14.4671 274.521C17.2938 276.883 28.8319 276.883 31.8901 275.705C34.9483 274.521 37.7749 269.09 37.7749 265.306C37.7749 261.523 34.2429 233.635 33.5376 228.198C32.8323 222.761 32.5954 208.347 30.4795 205.034C28.3581 201.727 27.6528 201.489 27.6528 201.489" fill="white"/>
<path d="M19.6466 201.489C19.6466 201.489 14.4671 209.996 14.4671 215.433C14.4671 220.87 11.6404 258.924 11.4089 263.647C11.172 268.376 11.6458 272.154 14.4671 274.521C17.2938 276.883 28.8319 276.883 31.8901 275.705C34.9483 274.521 37.7749 269.09 37.7749 265.306C37.7749 261.523 34.2429 233.635 33.5376 228.198C32.8323 222.761 32.5954 208.347 30.4795 205.034C28.3581 201.727 27.6528 201.489 27.6528 201.489" stroke="#263238" stroke-miterlimit="10" stroke-linecap="round" stroke-linejoin="round"/>
</g>
<defs>
<clipPath id="clip0_1_25">
<rect width="354" height="398" fill="white"/>
</clipPath>
</defs>
</svg>
