<svg width="30" height="40" viewBox="0 0 30 40" fill="none" xmlns="http://www.w3.org/2000/svg">
<path d="M0 4.12371C0 1.84624 1.84625 0 4.12371 0C6.40117 0 8.24742 1.84625 8.24742 4.12371V36.2887C3.6925 36.2887 0 32.5962 0 28.0412V4.12371Z" fill="#A92D56"/>
<path d="M9.89697 18.5567C9.89697 16.2792 11.7432 14.433 14.0207 14.433C16.2981 14.433 18.1444 16.2792 18.1444 18.5567V35.8763C18.1444 38.1537 16.2981 40 14.0207 40C11.7432 40 9.89697 38.1537 9.89697 35.8763V18.5567Z" fill="url(#paint0_linear_3_148)"/>
<path d="M19.7937 28.0413C19.7937 25.7638 21.6399 23.9175 23.9174 23.9175C26.1949 23.9175 28.0411 25.7638 28.0411 28.0413V30.1031C28.0411 33.5193 25.2717 36.2887 21.8556 36.2887H19.7937V28.0413Z" fill="#4A4A8F"/>
<defs>
<linearGradient id="paint0_linear_3_148" x1="14.0207" y1="24.0206" x2="18.5341" y2="43.8491" gradientUnits="userSpaceOnUse">
<stop stop-color="#A92D56"/>
<stop offset="1" stop-color="#2557A7"/>
</linearGradient>
</defs>
</svg>
