<svg width="134" height="40" viewBox="0 0 134 40" fill="none" xmlns="http://www.w3.org/2000/svg">
<path fill-rule="evenodd" clip-rule="evenodd" d="M43.1779 30.3746H36.7833V14.0189H35V31.8268H43.1779V30.3746ZM59.047 31.8268V17.9167H57.2637V25.4832C57.2637 27.1306 56.8645 28.379 56.0663 29.2282C55.268 30.0774 54.198 30.502 52.8563 30.502C51.5485 30.502 50.5124 30.1029 49.7482 29.3046C49.0009 28.5064 48.6272 27.3514 48.6272 25.8398V17.9167H46.8693V26.0436C46.8693 27.9968 47.3959 29.4914 48.4489 30.5275C49.5019 31.5465 50.8606 32.056 52.5251 32.056C53.5781 32.056 54.5292 31.8268 55.3784 31.3682C56.2276 30.9096 56.856 30.2472 57.2637 29.381V31.8268H59.047ZM63.577 24.8717C63.577 23.4281 63.8657 22.1713 64.4432 21.1013C65.0206 20.0143 65.8189 19.182 66.8379 18.6046C67.857 18.0101 69.0204 17.7129 70.3282 17.7129C72.0436 17.7129 73.4533 18.1375 74.5572 18.9867C75.6782 19.8359 76.4 20.9909 76.7227 22.4515H74.812C74.5742 21.4494 74.0562 20.6682 73.258 20.1077C72.4767 19.5302 71.5001 19.2415 70.3282 19.2415C69.3941 19.2415 68.5533 19.4538 67.806 19.8784C67.0587 20.303 66.4643 20.9399 66.0227 21.7891C65.5981 22.6213 65.3858 23.6489 65.3858 24.8717C65.3858 26.0946 65.5981 27.1306 66.0227 27.9798C66.4643 28.8291 67.0587 29.466 67.806 29.8906C68.5533 30.3152 69.3941 30.5275 70.3282 30.5275C71.5001 30.5275 72.4767 30.2472 73.258 29.6868C74.0562 29.1093 74.5742 28.311 74.812 27.292H76.7227C76.4 28.7187 75.6782 29.8651 74.5572 30.7313C73.4363 31.5975 72.0266 32.0306 70.3282 32.0306C69.0204 32.0306 67.857 31.7418 66.8379 31.1644C65.8189 30.5699 65.0206 29.7377 64.4432 28.6677C63.8657 27.5807 63.577 26.3154 63.577 24.8717ZM84.8568 18.3753C84.0586 18.8509 83.4641 19.5217 83.0735 20.3879V17.9167H81.2901V31.8268H83.0735V24.0565C83.0735 22.426 83.4641 21.2626 84.2454 20.5663C85.0267 19.8699 86.0627 19.5217 87.3535 19.5217H87.8375V17.662C86.6656 17.662 85.6721 17.8997 84.8568 18.3753ZM103.844 31.8268H102.061V29.381C101.653 30.2472 101.025 30.9096 100.176 31.3682C99.3266 31.8268 98.3755 32.056 97.3225 32.056C95.658 32.056 94.2993 31.5465 93.2463 30.5275C92.1932 29.4914 91.6667 27.9968 91.6667 26.0436V17.9167H93.4246V25.8398C93.4246 27.3514 93.7982 28.5064 94.5455 29.3046C95.3098 30.1029 96.3459 30.502 97.6536 30.502C98.9954 30.502 100.065 30.0774 100.864 29.2282C101.662 28.379 102.061 27.1306 102.061 25.4832V17.9167H103.844V31.8268ZM129.723 19.216C128.704 18.18 127.38 17.662 125.749 17.662C124.594 17.662 123.558 17.9592 122.641 18.5536C121.741 19.1311 121.104 19.9718 120.73 21.0758C120.323 19.9548 119.66 19.1056 118.743 18.5282C117.843 17.9507 116.79 17.662 115.584 17.662C114.582 17.662 113.673 17.8912 112.858 18.3498C112.043 18.7914 111.415 19.4453 110.973 20.3115V17.9167H109.19V31.8268H110.973V24.2858C110.973 22.6383 111.364 21.3815 112.145 20.5153C112.926 19.6491 113.971 19.216 115.278 19.216C116.552 19.216 117.554 19.6151 118.285 20.4134C119.015 21.2117 119.38 22.3666 119.38 23.8782V26.5796C119.647 26.5398 119.92 26.5192 120.198 26.5192H121.138V24.2858C121.138 22.6383 121.529 21.3815 122.31 20.5153C123.091 19.6491 124.136 19.216 125.443 19.216C126.7 19.216 127.694 19.6151 128.424 20.4134C129.154 21.2117 129.52 22.3666 129.52 23.8782V26.5213C130.136 26.5381 130.728 26.6564 131.278 26.8602V23.6744C131.278 21.7212 130.759 20.2351 129.723 19.216Z" fill="#1D1D1D"/>
<path d="M121.916 31.9435C121.916 32.1629 121.902 32.3611 121.874 32.538H117.405C117.44 33.005 117.614 33.3801 117.925 33.6632C118.236 33.9462 118.619 34.0878 119.071 34.0878C119.723 34.0878 120.183 33.8153 120.451 33.2704H121.757C121.58 33.8082 121.258 34.2505 120.791 34.5973C120.331 34.937 119.758 35.1068 119.071 35.1068C118.512 35.1068 118.01 34.983 117.564 34.7353C117.125 34.4805 116.779 34.1267 116.524 33.6738C116.276 33.2138 116.152 32.683 116.152 32.0815C116.152 31.48 116.273 30.9528 116.513 30.4999C116.761 30.0399 117.104 29.686 117.543 29.4384C117.989 29.1907 118.498 29.0668 119.071 29.0668C119.623 29.0668 120.115 29.1871 120.547 29.4277C120.979 29.6684 121.315 30.008 121.555 30.4468C121.796 30.8785 121.916 31.3774 121.916 31.9435ZM120.653 31.5614C120.646 31.1155 120.487 30.7582 120.175 30.4893C119.864 30.2203 119.478 30.0859 119.018 30.0859C118.601 30.0859 118.244 30.2203 117.946 30.4893C117.649 30.7511 117.472 31.1085 117.416 31.5614H120.653Z" fill="#A92D56"/>
<path d="M124.317 30.0116C124.494 29.7144 124.728 29.4844 125.018 29.3216C125.315 29.1518 125.665 29.0668 126.069 29.0668V30.3194H125.761C125.287 30.3194 124.926 30.4397 124.678 30.6803C124.438 30.9209 124.317 31.3385 124.317 31.9329V35.0113H123.107V29.1624H124.317V30.0116Z" fill="#A92D56"/>
<path d="M128.391 30.0222C128.597 29.7533 128.876 29.5268 129.23 29.3428C129.584 29.1588 129.984 29.0668 130.429 29.0668C130.939 29.0668 131.402 29.1942 131.82 29.449C132.245 29.6967 132.577 30.047 132.818 30.4999C133.058 30.9528 133.179 31.4729 133.179 32.0603C133.179 32.6477 133.058 33.1749 132.818 33.6419C132.577 34.1019 132.245 34.4628 131.82 34.7247C131.402 34.9794 130.939 35.1068 130.429 35.1068C129.984 35.1068 129.587 35.0184 129.241 34.8414C128.894 34.6575 128.611 34.431 128.391 34.1621V37.7924H127.181V29.1624H128.391V30.0222ZM131.947 32.0603C131.947 31.6569 131.862 31.3102 131.693 31.02C131.53 30.7228 131.31 30.4999 131.034 30.3513C130.766 30.1956 130.475 30.1177 130.164 30.1177C129.86 30.1177 129.57 30.1956 129.294 30.3513C129.025 30.5069 128.805 30.7334 128.635 31.0306C128.473 31.3278 128.391 31.6781 128.391 32.0815C128.391 32.4849 128.473 32.8387 128.635 33.143C128.805 33.4403 129.025 33.6667 129.294 33.8224C129.57 33.9781 129.86 34.0559 130.164 34.0559C130.475 34.0559 130.766 33.9781 131.034 33.8224C131.31 33.6596 131.53 33.4261 131.693 33.1218C131.862 32.8175 131.947 32.4637 131.947 32.0603Z" fill="#A92D56"/>
<path d="M0 4.12371C0 1.84624 1.84625 0 4.12371 0C6.40117 0 8.24742 1.84625 8.24742 4.12371V36.2887C3.6925 36.2887 0 32.5962 0 28.0412V4.12371Z" fill="#A92D56"/>
<path d="M9.89697 18.5567C9.89697 16.2792 11.7432 14.433 14.0207 14.433C16.2981 14.433 18.1444 16.2792 18.1444 18.5567V35.8763C18.1444 38.1537 16.2981 40 14.0207 40C11.7432 40 9.89697 38.1537 9.89697 35.8763V18.5567Z" fill="url(#paint0_linear_3_148)"/>
<path d="M19.7937 28.0413C19.7937 25.7638 21.6399 23.9175 23.9174 23.9175C26.1949 23.9175 28.0411 25.7638 28.0411 28.0413V30.1031C28.0411 33.5193 25.2717 36.2887 21.8556 36.2887H19.7937V28.0413Z" fill="#4A4A8F"/>
<defs>
<linearGradient id="paint0_linear_3_148" x1="14.0207" y1="24.0206" x2="18.5341" y2="43.8491" gradientUnits="userSpaceOnUse">
<stop stop-color="#A92D56"/>
<stop offset="1" stop-color="#2557A7"/>
</linearGradient>
</defs>
</svg>
