<svg width="24" height="24" viewBox="0 0 24 24" fill="none" xmlns="http://www.w3.org/2000/svg">
<path d="M13.125 6H0.875C0.642936 6 0.420376 6.10536 0.256282 6.29289C0.0921874 6.48043 0 6.73478 0 7C0 7.26522 0.0921874 7.51957 0.256282 7.70711C0.420376 7.89464 0.642936 8 0.875 8H13.125C13.3571 8 13.5796 7.89464 13.7437 7.70711C13.9078 7.51957 14 7.26522 14 7C14 6.73478 13.9078 6.48043 13.7437 6.29289C13.5796 6.10536 13.3571 6 13.125 6Z" fill="#A92D56"/>
<path d="M7.5 16H0.5C0.367392 16 0.240215 16.1054 0.146447 16.2929C0.0526785 16.4804 0 16.7348 0 17C0 17.2652 0.0526785 17.5196 0.146447 17.7071C0.240215 17.8946 0.367392 18 0.5 18H7.5C7.63261 18 7.75979 17.8946 7.85355 17.7071C7.94732 17.5196 8 17.2652 8 17C8 16.7348 7.94732 16.4804 7.85355 16.2929C7.75979 16.1054 7.63261 16 7.5 16Z" fill="#A92D56"/>
<path d="M23 11H1C0.734784 11 0.48043 11.1054 0.292893 11.2929C0.105357 11.4804 0 11.7348 0 12C0 12.2652 0.105357 12.5196 0.292893 12.7071C0.48043 12.8947 0.734784 13 1 13H23C23.2652 13 23.5196 12.8947 23.7071 12.7071C23.8946 12.5196 24 12.2652 24 12C24 11.7348 23.8946 11.4804 23.7071 11.2929C23.5196 11.1054 23.2652 11 23 11Z" fill="#A92D56"/>
</svg>
