<svg width="26" height="26" viewBox="0 0 26 26" fill="none" xmlns="http://www.w3.org/2000/svg">
<g clip-path="url(#clip0_733_4790)">
<path d="M20.8588 17.331L17.0868 23.486C16.6726 24.166 16.1087 24.7426 15.4381 25.1718C14.7675 25.601 14.0078 25.8716 13.2168 25.963C13.0084 25.9877 12.7987 26.0001 12.5888 26C11.5143 25.9985 10.4665 25.665 9.58881 25.045C8.68187 25.7245 7.56155 26.0566 6.43082 25.9812C5.3001 25.9058 4.23378 25.4279 3.42506 24.6341C2.61634 23.8402 2.11873 22.783 2.02237 21.6538C1.92602 20.5247 2.2373 19.3984 2.89982 18.479L1.58482 17.166C1.02331 16.6045 0.596131 15.9232 0.335267 15.1731C0.0744026 14.4231 -0.0133848 13.6238 0.0784792 12.835C0.170343 12.0462 0.439478 11.2884 0.865727 10.6184C1.29198 9.94839 1.86429 9.38349 2.53982 8.96602L8.30682 5.40002C9.86903 4.3988 11.7062 3.91337 13.5591 4.01223C15.4119 4.1111 17.187 4.78925 18.6338 5.95102L20.2928 4.29202C20.3851 4.19651 20.4954 4.12033 20.6174 4.06792C20.7394 4.01551 20.8706 3.98792 21.0034 3.98677C21.1362 3.98562 21.2679 4.01092 21.3908 4.0612C21.5137 4.11148 21.6253 4.18573 21.7192 4.27963C21.8131 4.37352 21.8874 4.48517 21.9376 4.60807C21.9879 4.73096 22.0132 4.86264 22.0121 4.99542C22.0109 5.1282 21.9833 5.25942 21.9309 5.38143C21.8785 5.50343 21.8023 5.61377 21.7068 5.70602L20.0498 7.36402C21.1612 8.75626 21.8318 10.4484 21.9759 12.224C22.12 13.9996 21.7311 15.7778 20.8588 17.331V17.331ZM8.06481 23.647L4.34582 19.927C4.05519 20.4468 3.9431 21.0475 4.02673 21.6371C4.11037 22.2267 4.38511 22.7726 4.80882 23.191C5.23624 23.597 5.77989 23.8593 6.36371 23.941C6.94753 24.0228 7.5423 23.92 8.06481 23.647V23.647ZM17.9858 8.04702C16.8754 6.92586 15.4136 6.22004 13.845 6.04766C12.2764 5.87528 10.6963 6.24678 9.36882 7.10002L3.59182 10.666C3.17286 10.925 2.81791 11.2754 2.55357 11.691C2.28923 12.1066 2.12234 12.5766 2.06539 13.0658C2.00844 13.555 2.06292 14.0508 2.22474 14.516C2.38657 14.9812 2.65154 15.4037 2.99982 15.752L10.2898 23.043C10.6387 23.3923 11.0621 23.6578 11.5284 23.8198C11.9947 23.9818 12.4916 24.036 12.9818 23.9782C13.472 23.9204 13.9428 23.7523 14.3587 23.4864C14.7745 23.2205 15.1247 22.8638 15.3828 22.443L19.1378 16.318C19.8712 15.0007 20.1555 13.4804 19.9477 11.9871C19.7398 10.4938 19.0511 9.10892 17.9858 8.04202V8.04702ZM19.2648 26C19.0536 26.0004 18.8477 25.9339 18.6767 25.8101C18.5056 25.6863 18.3781 25.5115 18.3125 25.3107C18.2469 25.11 18.2465 24.8936 18.3114 24.6927C18.3763 24.4917 18.5032 24.3164 18.6738 24.192C20.4248 22.8756 21.6099 20.9427 21.9888 18.785C22.0154 18.6551 22.0675 18.5318 22.1422 18.4223C22.2168 18.3127 22.3126 18.2191 22.4237 18.1469C22.5349 18.0746 22.6593 18.0252 22.7898 18.0016C22.9202 17.9779 23.0541 17.9803 23.1835 18.0088C23.313 18.0373 23.4355 18.0913 23.544 18.1676C23.6524 18.2439 23.7446 18.341 23.8151 18.4532C23.8857 18.5655 23.9332 18.6906 23.955 18.8214C23.9767 18.9522 23.9723 19.086 23.9418 19.215C23.4518 21.8467 21.9932 24.1991 19.8538 25.808C19.6828 25.9328 19.4765 26 19.2648 26ZM0.999815 7.73902C0.815118 7.7382 0.634257 7.68624 0.477286 7.5889C0.320315 7.49157 0.193368 7.35267 0.11052 7.18759C0.0276712 7.02251 -0.00784092 6.83772 0.00792078 6.65369C0.0236825 6.46967 0.0901021 6.2936 0.199815 6.14502C1.8308 3.96561 4.23163 2.49034 6.91282 2.02002C7.17273 1.96698 7.44307 2.01936 7.66436 2.16563C7.88565 2.31191 8.03977 2.54011 8.09282 2.80002C8.14586 3.05993 8.09348 3.33027 7.9472 3.55156C7.80092 3.77286 7.57273 3.92698 7.31282 3.98002C5.11079 4.34364 3.13505 5.54565 1.79982 7.33402C1.70719 7.45914 1.58664 7.5609 1.44775 7.63121C1.30887 7.70152 1.15548 7.73844 0.999815 7.73902V7.73902Z" fill="#374957"/>
</g>
<circle cx="20.8472" cy="4.84722" r="4.34722" fill="#A92D56" stroke="white"/>
<defs>
<clipPath id="clip0_733_4790">
<rect width="24" height="24" fill="white" transform="translate(0 2)"/>
</clipPath>
</defs>
</svg>
