<svg width="15" height="12" viewBox="0 0 15 12" fill="none" xmlns="http://www.w3.org/2000/svg">
<path d="M10.12 11.7102L14.41 7.41018C14.7825 7.03546 14.9916 6.52855 14.9916 6.00018C14.9916 5.47181 14.7825 4.96491 14.41 4.59018L10.12 0.290182C9.93263 0.103931 9.67918 -0.000610352 9.41499 -0.000610352C9.15081 -0.000610352 8.89735 0.103931 8.70999 0.290182C8.61626 0.383145 8.54187 0.493746 8.4911 0.615605C8.44033 0.737465 8.41419 0.86817 8.41419 1.00018C8.41419 1.13219 8.44033 1.2629 8.4911 1.38476C8.54187 1.50662 8.61626 1.61722 8.70999 1.71018L12 5.00018L0.999992 5.00018C0.734776 5.00018 0.480421 5.10554 0.292885 5.29308C0.105349 5.48061 -7.62939e-06 5.73497 -7.62939e-06 6.00018C-7.62939e-06 6.2654 0.105349 6.51975 0.292885 6.70729C0.480421 6.89482 0.734776 7.00018 0.999992 7.00018L12 7.00018L8.70999 10.2902C8.52169 10.4772 8.41537 10.7313 8.41444 10.9966C8.4135 11.262 8.51801 11.5169 8.70499 11.7052C8.89197 11.8935 9.14609 11.9998 9.41146 12.0007C9.67682 12.0017 9.93169 11.8972 10.12 11.7102Z" fill="#E57B3E"/>
</svg>
