<svg width="12" height="15" viewBox="0 0 12 15" fill="none" xmlns="http://www.w3.org/2000/svg">
<path d="M11.7103 4.88001L7.4103 0.590008C7.03558 0.217506 6.52868 0.00842285 6.0003 0.00842285C5.47193 0.00842285 4.96503 0.217506 4.5903 0.590008L0.290304 4.88001C0.104053 5.06737 -0.000488281 5.32082 -0.000488281 5.58501C-0.000488281 5.84919 0.104053 6.10265 0.290304 6.29001C0.383267 6.38374 0.493868 6.45813 0.615727 6.5089C0.737587 6.55967 0.868292 6.58581 1.0003 6.58581C1.13232 6.58581 1.26302 6.55967 1.38488 6.5089C1.50674 6.45813 1.61734 6.38374 1.7103 6.29001L5.0003 3.00001V14C5.0003 14.2652 5.10566 14.5196 5.2932 14.7071C5.48073 14.8947 5.73509 15 6.0003 15C6.26552 15 6.51987 14.8947 6.70741 14.7071C6.89495 14.5196 7.0003 14.2652 7.0003 14V3.00001L10.2903 6.29001C10.4773 6.47831 10.7314 6.58463 10.9968 6.58556C11.2621 6.5865 11.517 6.48199 11.7053 6.29501C11.8936 6.10803 11.9999 5.85391 12.0009 5.58854C12.0018 5.32318 11.8973 5.06831 11.7103 4.88001Z" fill="white"/>
</svg>
